<ttFont>
          <CharString index="0">
            rmoveto
            116 48 145 125 123 58 -154 -123 -116 -48 -144 -125 -125 -56 153 123 vhcurveto
            -100 -8 rmoveto
            -163 110 -139 167 163 114 139 163 163 -112 140 -165 -165 -112 -140 -163 vhcurveto
            return
          </CharString>
          <CharString index="1">
            rmoveto
            -27 22 -22 27 27 22 22 27 27 -22 22 -27 -27 -22 -22 -27 vhcurveto
            -184 hmoveto
            -27 22 -22 27 27 22 22 27 27 -22 22 -27 -27 -22 -22 -27 vhcurveto
            return
          </CharString>
          <CharString index="2">
            rmoveto
            321 hlineto
            110 -60 99 -150 -134 -72 18 callsubr
            -19 callsubr
            vhcurveto
            -5 callgsubr
            -42 callsubr
            -79 -74 101 112 -2 hvcurveto
            1 31 rmoveto
            92 9 53 56 44 hhcurveto
            89 20 -65 -83 7 hvcurveto
            endchar
          </CharString>
          <CharString index="3">
            rmoveto
            38 39 18 94 hvcurveto
            -19 hlineto
            -37 -10 -22 -40 vhcurveto
            -30 -85 59 -41 hhcurveto
            -38 -38 -18 -94 hvcurveto
            19 hlineto
            37 10 22 40 vhcurveto
            30 84 -59 41 hhcurveto
            return
          </CharString>
          <CharString index="4">
            vlineto
            14 6 15 6 42 hhcurveto
            21 -218 -21 vlineto
            -104 callgsubr
            return
          </CharString>
          <CharString index="5">
            -101 callsubr
            hlineto
            return
          </CharString>
          <CharString index="6">
            -14 -36 -17 -21 -14 -6 rrcurveto
            -228 253 140 hlineto
            -98 callsubr
            return
          </CharString>
          <CharString index="7">
            19 4 13 8 hhcurveto
            8 2 0 -25 -45 -49 -34 -29 -4 hvcurveto
            -28 vlineto
            32 10 92 32 81 vvcurveto
            55 -43 32 -49 -8 -38 -3 -40 -31 22 -13 29 vhcurveto
            return
          </CharString>
          <CharString index="8">
            -42 -15 6 14 -6 hvcurveto
            return
          </CharString>
          <CharString index="9">
            -87 callgsubr
            160 -21 hlineto
            -42 -6 -15 -14 -6 vhcurveto
            -140 230 -73 callgsubr
            return
          </CharString>
          <CharString index="10">
            -105 -60 -40 -70 -30 17 -20 26 21 24 10 25 31 -19 10 -16 hvcurveto
            208 -308 rmoveto
            -19 -31 -50 -15 -40 hhcurveto
            return
          </CharString>
          <CharString index="11">
            -65 callsubr
            -7 17 -20 hhcurveto
            -26 -13 -21 -18 -22 19 -22 35 29 48 21 69 28 hvcurveto
            201 503 rlineto
            12 5 20 6 37 hhcurveto
            21 -164 -21 vlineto
            31 16 -4 -7 9 hvcurveto
            -114 -286 -8 callsubr
          </CharString>
          <CharString index="12">
            vlineto
            -13 callsubr
            216 -92 callsubr
            return
          </CharString>
          <CharString index="13">
            160 21 hlineto
            -99 callsubr
            456 vlineto
            393 -497 rlineto
            9 544 16 callgsubr
            -368 vlineto
            -331 409 rlineto
            -134 -21 hlineto
            -78 callsubr
          </CharString>
          <CharString index="14">
            vlineto
            45 69 43 39 hhcurveto
            23 vlineto
            -15 -23 3 2 -25 hvcurveto
            return
          </CharString>
          <CharString index="15">
            21 vlineto
            -99 callsubr
            return
          </CharString>
          <CharString index="16">
            -45 -29 18 68 81 119 17 70 22 hvcurveto
            -118 vlineto
            -21 2 -18 4 -15 vhcurveto
            return
          </CharString>
          <CharString index="17">
            53 callgsubr
            42 17 -7 -14 5 hvcurveto
            49 -138 -96 -271 -153 418 rlineto
            -32 callsubr
            194 -543 rlineto
            48 hlineto
            124 349 125 -349 rlineto
            48 hlineto
            194 543 rlineto
            14 5 16 7 42 hhcurveto
            21 -164 -21 vlineto
            40 15 -5 -13 7 hvcurveto
            -147 -413 -153 419 29 callsubr
            endchar
          </CharString>
          <CharString index="18">
            vlineto
            -13 callsubr
            218 -92 callsubr
            return
          </CharString>
          <CharString index="19">
            57 83 21 79 -82 callgsubr
            hvcurveto
            7 5 2 4 hhcurveto
            5 5 -3 -4 -42 -34 -28 -58 hvcurveto
            return
          </CharString>
          <CharString index="20">
            216 21 hlineto
            -99 callsubr
            589 -101 callgsubr
            -518 vlineto
            -102 callgsubr
            return
          </CharString>
          <CharString index="21">
            216 21 hlineto
            -55 callgsubr
            -258 -95 callsubr
            295 vlineto
            72 -50 42 -118 -56 -44 -32 -26 -25 vhcurveto
            37 -22 -49 21 -83 hhcurveto
            -47 -38 -23 -22 -26 hvcurveto
            45 -101 callgsubr
            -338 -59 callsubr
          </CharString>
          <CharString index="22">
            rmoveto
            -21 -37 -20 -12 -19 hvcurveto
            15 -22 -35 17 -53 hhcurveto
            -130 -96 -78 -154 -182 126 -46 78 54 38 13 17 26 hvcurveto
            -141 -8 -45 -43 -60 hhcurveto
            -75 -33 20 7 -7 hvcurveto
            return
          </CharString>
          <CharString index="23">
            51 callsubr
            94 vlineto
            121 -214 rlineto
            -49 28 13 -3 92 hhcurveto
            43 21 hlineto
            -42 -17 7 14 -7 hvcurveto
            -133 238 rlineto
            90 26 41 60 71 vvcurveto
            67 -73 81 -179 vhcurveto
            return
          </CharString>
          <CharString index="24">
            rmoveto
            92 callgsubr
            hvcurveto
            -43 callsubr
            70 -60 36 -105 -138 -85 18 callsubr
            -19 callsubr
            hvcurveto
            -39 callsubr
            hvcurveto
            endchar
          </CharString>
          <CharString index="25">
            76 -48 -80 50 -99 hhcurveto
            -165 -112 -140 -163 hvcurveto
            100 8 rmoveto
            116 48 145 125 123 58 -154 -123 -116 -48 -144 -125 -125 -56 153 123 vhcurveto
            endchar
          </CharString>
          <CharString index="26">
            rmoveto
            165 64 108 118 39 -5 35 -12 31 hvcurveto
            42 12 37 27 53 -81 callgsubr
            -28 -14 -21 -27 -12 hvcurveto
            return
          </CharString>
          <CharString index="27">
            13 -22 -32 11 -44 hhcurveto
            -130 -96 -78 -154 -182 126 -50 78 56 38 15 18 26 hvcurveto
            -33 -93 callsubr
            return
          </CharString>
          <CharString index="28">
            rmoveto
            21 callgsubr
            hintmask 10101010
            -69 callgsubr
            hintmask 11001001
            -19 -41 30 -51 hhcurveto
            -157 -146 -117 -194 -152 102 -142 186 123 58 70 60 25 hvcurveto
            -28 callgsubr
            86 103 114 hvcurveto
            endchar
          </CharString>
          <CharString index="29">
            -104 callgsubr
            -503 -59 callsubr
          </CharString>
          <CharString index="30">
            vvcurveto
            -60 33 -37 67 59 20 32 0 vhcurveto
            -11 18 rlineto
            0 -17 -16 -14 -41 -47 37 70 return
          </CharString>
          <CharString index="31">
            18 7 7 10 25 -27 callsubr
            66 -52 122 131 63 98 131 vhcurveto
            -90 24 rmoveto
            -15 -22 -34 -14 -53 hhcurveto
            return
          </CharString>
          <CharString index="32">
            10 callgsubr
            hintmask 0100010010000000
            20 callgsubr
            vhcurveto
            hintmask 1001001010000000
            -58 callsubr
            hintmask 0010001001000000
            -29 callsubr
            hintmask 1001001010000000
            -64 callgsubr
            vhcurveto
            endchar
          </CharString>
          <CharString index="33">
            -117 56 -39 68 56 76 22 46 18 -20 18 -22 -20 -12 -17 -27 -14 vhcurveto
            -20 -10 -4 -10 -20 hhcurveto
            -24 return
          </CharString>
          <CharString index="34">
            26 96 rlineto
            -21 hlineto
            -12 -42 -20 -18 -14 -6 rrcurveto
            -272 hlineto
            318 555 rlineto
            -403 -93 21 hlineto
            42 6 15 14 6 vhcurveto
            243 hlineto
            -318 -555 rlineto
            endchar
          </CharString>
          <CharString index="35">
            216 21 hlineto
            -99 callsubr
            503 vlineto
            14 6 15 6 42 hhcurveto
            21 -216 -21 vlineto
            -104 callgsubr
            -503 -15 callgsubr
            9 8 12 14 42 hhcurveto
            21 -157 -21 vlineto
            26 15 -2 -5 10 hvcurveto
            -245 -243 228 -290 rlineto
            -2 -9 -12 -1 -16 hhcurveto
            endchar
          </CharString>
          <CharString index="36">
            rmoveto
            -80 callsubr
            return
          </CharString>
          <CharString index="37">
            -179 -89 callsubr
            return
          </CharString>
          <CharString index="38">
            hlineto
            -121 -19 -12 -23 -34 hvcurveto
            -22 -14 -11 -34 -22 vvcurveto
            -37 22 -51 49 26 21 18 29 13 -5 12 -14 8 vhcurveto
            -11 6 -4 11 12 vvcurveto
            12 4 12 7 7 vhcurveto
            11 10 29 8 73 hhcurveto
            return
          </CharString>
          <CharString index="39">
            -19 -51 30 -51 hhcurveto
            -90 -85 -76 -79 -82 81 -48 65 -40 hvcurveto
            71 -44 95 -30 -76 vvcurveto
            -68 -55 -28 -66 -73 -81 29 86 -16 vhcurveto
            return
          </CharString>
          <CharString index="40">
            77 49 58 47 hvcurveto
            -28 hlineto
            -22 -9 -22 -30 -67 hhcurveto
            -67 -22 30 22 -9 hvcurveto
            -28 hlineto
            -47 49 -58 77 vhcurveto
            return
          </CharString>
          <CharString index="41">
            rmoveto
            -44 264 44 vlineto
            return
          </CharString>
          <CharString index="42">
            -74 callgsubr
            -43 -108 rlineto
            -11 -4 -9 -7 -15 -14 return
          </CharString>
          <CharString index="43">
            424 hlineto
            24 97 rlineto
            -20 hlineto
            return
          </CharString>
          <CharString index="44">
            218 21 hlineto
            -99 callsubr
            return
          </CharString>
          <CharString index="45">
            30 208 22 38 76 48 36 return
          </CharString>
          <CharString index="46">
            -36 -24 -20 -4 10 20 -10 vhcurveto
            27 -14 -12 17 -20 hhcurveto
            -22 -20 -18 -18 -46 76 -22 56 68 56 117 callsubr
            return
          </CharString>
          <CharString index="47">
            -5 0 -46 callgsubr
            return
          </CharString>
          <CharString index="48">
            vlineto
            -102 callgsubr
            endchar
          </CharString>
          <CharString index="49">
            19 28 -34 61 hhcurveto
            97 76 50 84 70 -66 48 -60 23 hvcurveto
            -63 24 -64 13 62 vvcurveto
            36 34 20 41 vhcurveto
            return
          </CharString>
          <CharString index="50">
            -68 -8 -62 callsubr
            return
          </CharString>
          <CharString index="51">
            rmoveto
            17 -9 10 11 10 13 11 7 rlinecurve
            -217 vlineto
            -5 -3 -9 -5 -30 hhcurveto
            -23 156 23 vlineto
            -25 -14 2 8 -4 hvcurveto
            342 -18 vlineto
            -22 -53 -102 -45 -26 hvcurveto
            endchar
          </CharString>
          <CharString index="52">
            rmoveto
            -134 hlineto
            22 30 153 113 78 vvcurveto
            60 -37 43 -93 -96 -35 -83 -20 -4 2 -7 8 vhcurveto
            20 -8 64 101 hhcurveto
            42 21 -27 -35 hvcurveto
            -112 -193 -114 -37 vvcurveto
            -5 259 vlineto
            28 99 rlineto
            -22 hlineto
            -8 -22 -17 -16 -13 -5 rrcurveto
            return
          </CharString>
          <CharString index="53">
            -126 -52 -40 -23 -23 -27 vhcurveto
            return
          </CharString>
          <CharString index="54">
            -35 callgsubr
            43 83 callsubr
            -330 vlineto
            endchar
          </CharString>
          <CharString index="55">
            242 hlineto
            167 116 120 174 172 -116 119 -179 hvcurveto
            return
          </CharString>
          <CharString index="56">
            rmoveto
            -163 110 -139 167 163 114 139 163 56 -14 54 -24 46 vhcurveto
            return
          </CharString>
          <CharString index="57">
            rmoveto
            -91 -67 74 136 hvcurveto
            return
          </CharString>
          <CharString index="58">
            -114 -106 36 -6 93 49 93 -49 36 6 return
          </CharString>
          <CharString index="59">
            -58 -10 -27 callgsubr
            return
          </CharString>
          <CharString index="60">
            25 -24 10 -21 -26 -17 -20 -30 return
          </CharString>
          <CharString index="61">
            rmoveto
            -30 -25 -33 -52 -31 -35 26 32 51 27 25 26 14 vhcurveto
            45 -28 45 -26 -31 vvcurveto
            -13 105 rmoveto
            hintmask 11010100
            33 16 43 23 55 vvcurveto
            58 -41 34 -85 -76 -50 -34 -52 -43 29 -29 39 -28 vhcurveto
            hintmask 11101000
            -34 -18 -42 -29 -57 vvcurveto
            -59 48 -36 85 76 57 34 55 48 -38 33 -44 29 vhcurveto
            -31 20 rmoveto
            hintmask 11010100
            -40 25 -36 22 28 vvcurveto
            30 18 30 51 30 29 -23 -32 -49 -26 -20 -26 -11 vhcurveto
            endchar
          </CharString>
          <CharString index="62">
            12 callsubr
            -23 -36 -23 -46 hhcurveto
            -60 -24 29 88 hvcurveto
            299 -86 callgsubr
            -295 vlineto
            -11 1 -11 3 -10 vhcurveto
            -22 -23 -37 -26 -49 hhcurveto
            -60 -24 29 88 hvcurveto
            299 -86 callgsubr
            -295 vlineto
            -72 50 -42 118 56 44 32 26 25 vhcurveto
            -37 22 49 -21 83 hhcurveto
            47 38 23 22 26 hvcurveto
            return
          </CharString>
          <CharString index="63">
            rmoveto
            -87 callsubr
            289 43 callsubr
            -38 -15 5 14 -10 hvcurveto
            -172 239 142 127 rlineto
            7 9 14 -39 callgsubr
          </CharString>
          <CharString index="64">
            -16 -19 -10 -31 -25 24 -10 21 26 17 20 30 return
          </CharString>
          <CharString index="65">
            -50 -40 -42 -16 -58 hhcurveto
            return
          </CharString>
          <CharString index="66">
            rmoveto
            hintmask 00010110
            38 39 14 70 hvcurveto
            -19 hlineto
            hintmask 00100110
            -22 -10 -16 -40 vhcurveto
            hintmask 00010110
            -30 -82 38 -41 hhcurveto
            hintmask 00100110
            -38 -38 -14 -70 hvcurveto
            19 hlineto
            hintmask 00010110
            22 10 16 40 vhcurveto
            30 81 -38 41 hhcurveto
            return
          </CharString>
          <CharString index="67">
            25 15 24 23 34 vvcurveto
            60 -35 37 -92 -79 -32 -71 -20 -3 2 -9 8 vhcurveto
            20 -11 53 84 hhcurveto
            43 25 -22 -34 -50 -45 -10 -39 -12 hvcurveto
            -1 -7 -2 -7 -6 8 -7 10 hvcurveto
            endchar
          </CharString>
          <CharString index="68">
            -5 callgsubr
            -42 callsubr
            -80 -75 104 114 108 57 66 81 return
          </CharString>
          <CharString index="69">
            76 20 36 24 14 7 -9 -15 3 vhcurveto
            -23 6 13 -11 20 hhcurveto
            22 14 20 18 29 -39 21 -70 22 callsubr
            hvcurveto
            return
          </CharString>
          <CharString index="70">
            -48 -12 callsubr
            hlineto
            return
          </CharString>
          <CharString index="71">
            hhcurveto
            60 24 -29 -88 hvcurveto
            -258 -95 callsubr
            295 vlineto
            return
          </CharString>
          <CharString index="72">
            76 155 30 100 vvcurveto
            66 -58 89 -148 -131 -51 -72 12 callgsubr
            39 10 28 47 81 hhcurveto
            96 30 -59 -84 hvcurveto
            endchar
          </CharString>
          <CharString index="73">
            -58 -10 30 148 31 213 38 hstem
            358 96 vstem
            359 199 rmoveto
            -321 hlineto
            -110 60 -99 150 134 72 96 112 202 -124 50 -92 -104 -56 -30 -62 -38 vhcurveto
            24 -12 rlineto
            50 40 42 16 58 hhcurveto
            79 74 -101 -112 2 hvcurveto
            -1 -31 rmoveto
            -92 -9 -53 -56 -44 hhcurveto
            -89 -20 65 83 -7 hvcurveto
            endchar
          </CharString>
          <CharString index="74">
            -134 -106 callsubr
            return
          </CharString>
          <CharString index="75">
            -10 callsubr
            21 -219 -21 vlineto
            42 17 -7 -14 5 hvcurveto
            return
          </CharString>
          <CharString index="76">
            rmoveto
            13 4 4 16 hhcurveto
            45 16 -46 -30 -35 -10 -47 -72 hvcurveto
            -84 19 71 -34 hhcurveto
            -21 -7 -11 -30 -16 50 -44 81 115 28 58 68 39 -27 34 -40 16 hvcurveto
            return
          </CharString>
          <CharString index="77">
            21 543 21 return
          </CharString>
          <CharString index="78">
            60 52 -45 -12 callsubr
            120 -23 hlineto
            -12 -5 -8 -7 vhcurveto
            return
          </CharString>
          <CharString index="79">
            -47 callgsubr
            75 return
          </CharString>
          <CharString index="80">
            vvcurveto
            -47 callsubr
            -38 return
          </CharString>
          <CharString index="81">
            21 46 37 callsubr
            return
          </CharString>
          <CharString index="82">
            -23 callsubr
            9 34 return
          </CharString>
          <CharString index="83">
            hstem
            78 54 123 54 vstem
            40 370 rmoveto
            130 10 hlineto
            31 callgsubr
            166 vlineto
            10 14 23 12 31 hhcurveto
            43 12 -20 -28 hvcurveto
            -140 13 callsubr
            -10 130 10 vlineto
            31 callgsubr
            136 vlineto
            51 -30 18 -76 -31 -24 -11 -12 -16 vhcurveto
            return
          </CharString>
          <CharString index="84">
            21 363 23 return
          </CharString>
          <CharString index="85">
            -74 callgsubr
            rlineto
            49 hlineto
            return
          </CharString>
          <CharString index="86">
            rmoveto
            -35 -26 29 53 61 21 33 39 33 35 -30 -101 -6 1 -7 -1 -10 hvcurveto
            -11 -13 -19 -11 -35 hhcurveto
            62 -13 rmoveto
            -18 -96 -64 -38 -75 -19 13 -20 rcurveline
            71 8 148 57 166 vvcurveto
            89 -44 73 -94 -77 -53 -49 -70 -75 38 -44 95 23 19 6 12 18 vhcurveto
            endchar
          </CharString>
          <CharString index="87">
            10 callsubr
            23 20 return
          </CharString>
          <CharString index="88">
            104 56 30 62 38 return
          </CharString>
          <CharString index="89">
            15 12 70 24 4 hvcurveto
            2 13 12 79 26 vvcurveto
            31 -18 14 -27 -27 -18 -14 -31 -26 12 -78 2 -14 vhcurveto
            -24 4 12 -70 15 hhcurveto
            return
          </CharString>
          <CharString index="90">
            -10 69 callsubr
            return
          </CharString>
          <CharString index="91">
            hstemhm
            32 93 -66 88 return
          </CharString>
          <CharString index="92">
            -87 callgsubr
            97 hlineto
            return
          </CharString>
          <CharString index="93">
            213 31 148 30 return
          </CharString>
          <CharString index="94">
            -102 callgsubr
            -21 return
          </CharString>
          <CharString index="95">
            -55 8 hvcurveto
            22 return
          </CharString>
          <CharString index="96">
            -37 hhcurveto
            -21 164 21 vlineto
            -31 -16 4 7 -9 hvcurveto
            114 286 119 -293 rlineto
            -3 -10 -13 -1 -19 hhcurveto
            return
          </CharString>
          <CharString index="97">
            8 8 17 4 33 hhcurveto
            return
          </CharString>
          <CharString index="98">
            rmoveto
            10 66 rlineto
            155 hlineto
            19 56 rlineto
            -198 hlineto
            -24 -157 rlineto
            135 39 -58 -45 -36 -13 -55 -61 hvcurveto
            -96 23 72 -34 hhcurveto
            -21 -7 -11 -30 -16 44 -44 95 94 41 66 68 49 -43 73 -158 2 hvcurveto
            endchar
          </CharString>
          <CharString index="99">
            -119 293 rlineto
            3 10 13 1 19 hhcurveto
            endchar
          </CharString>
          <CharString index="100">
            -15 callsubr
            endchar
          </CharString>
          <CharString index="101">
            -43 hlineto
            -95 -66 -50 -57 vhcurveto
            -30 vlineto
            return
          </CharString>
          <CharString index="102">
            -36 13 23 -24 31 hhcurveto
            34 24 31 42 11 hvcurveto
            -33 10 rlineto
            -29 -8 -14 -20 -14 hhcurveto
            -21 -22 41 53 hvcurveto
            return
          </CharString>
          <CharString index="103">
            rmoveto
            9 5 4 10 10 vvcurveto
            10 -4 10 -9 5 vhcurveto
            -162 94 rlineto
            -26 vlineto
            87 -93 -87 -93 rlineto
            -26 vlineto
            return
          </CharString>
          <CharString index="104">
            240 hlineto
            167 73 76 95 53 -44 61 -106 24 hvcurveto
            return
          </CharString>
          <CharString index="105">
            34 540 21 return
          </CharString>
          <CharString index="106">
            rmoveto
            142 hlineto
            -8 -43 -108 -185 -81 vvcurveto
            -10 13 -5 13 7 21 1 14 vhcurveto
            116 123 209 40 vvcurveto
            -235 hlineto
            -28 -99 rlineto
            22 hlineto
            8 21 18 16 12 6 rrcurveto
            endchar
          </CharString>
          <CharString index="107">
            -54 callgsubr
            -42 -55 hvcurveto
            return
          </CharString>
          <CharString index="108">
            rmoveto
            91 32 72 45 42 35 -68 -95 -91 -32 -72 -45 -42 -35 68 95 vhcurveto
            -70 hmoveto
            -108 50 -85 97 94 53 81 112 108 -50 85 -97 -94 -53 -81 -112 vhcurveto
            endchar
          </CharString>
          <CharString index="109">
            46 vstem
            90 578 rmoveto
            -100 callsubr
            return
          </CharString>
          <CharString index="110">
            rmoveto
            50 53 22 110 hvcurveto
            -26 hlineto
            -44 -13 -25 -53 vhcurveto
            -40 -140 69 -55 hhcurveto
            -50 -52 -22 -110 hvcurveto
            26 hlineto
            44 13 25 53 vhcurveto
            40 139 -69 55 hhcurveto
            endchar
          </CharString>
          <CharString index="111">
            17 callsubr
            163 vlineto
            -12 22 32 -10 44 hhcurveto
            130 96 74 154 182 -126 50 -78 -56 -38 -15 -18 -26 hvcurveto
            return
          </CharString>
          <CharString index="112">
            84 30 59 96 81 28 -47 -39 10 vhcurveto
            -43 callsubr
            70 -51 72 -131 -148 -58 -89 -66 hvcurveto
            -100 155 -30 -76 vvcurveto
            return
          </CharString>
          <CharString index="113">
            hmoveto
            -100 callsubr
            endchar
          </CharString>
          <CharString index="114">
            500 11 callsubr
          </CharString>
          <CharString index="115">
            33 -10 24 callsubr
            return
          </CharString>
          <CharString index="116">
            73 25 33 49 64 vvcurveto
            67 -73 71 -179 vhcurveto
            return
          </CharString>
          <CharString index="117">
            -283 0 -23 callsubr
            return
          </CharString>
          <CharString index="118">
            -104 callsubr
            endchar
          </CharString>
          <CharString index="119">
            -86 callgsubr
            -331 vlineto
            -21 return
          </CharString>
          <CharString index="120">
            vlineto
            -7 -4 -9 -3 -25 hhcurveto
            return
          </CharString>
          <CharString index="121">
            81 58 -18 -82 -56 -65 -26 -72 -44 -47 16 50 -40 hvcurveto
            -24 -12 rlineto
            -62 38 45 -30 95 hhcurveto
            125 84 36 88 59 -37 37 -60 20 hvcurveto
            return
          </CharString>
          <CharString index="122">
            vlineto
            -76 -20 -36 -24 -14 -7 9 15 -3 vhcurveto
            23 -6 -13 11 -20 hhcurveto
            -22 -14 -20 -18 -29 39 -21 70 68 56 117 callsubr
            endchar
          </CharString>
          <CharString index="123">
            -167 rmoveto
            26 -14 7 -18 vhcurveto
            -20 -26 -8 -19 hhcurveto
            -17 -12 6 23 hvcurveto
            return
          </CharString>
          <CharString index="124">
            -192 rmoveto
            216 21 hlineto
            -99 callsubr
            return
          </CharString>
          <CharString index="125">
            -96 -112 -202 124 -50 92 return
          </CharString>
          <CharString index="126">
            -9 callgsubr
            38 21 return
          </CharString>
          <CharString index="127">
            30 -20 21 399 20 -20 30 return
          </CharString>
          <CharString index="128">
            90 70 18 -59 callgsubr
            return
          </CharString>
          <CharString index="129">
            -68 -56 -39 -117 return
          </CharString>
          <CharString index="130">
            -19 -32 -16 -12 -20 hvcurveto
            14 -39 -49 14 -49 hhcurveto
            -109 -182 -55 -250 -258 191 -42 78 57 47 12 15 36 hvcurveto
            return
          </CharString>
          <CharString index="131">
            34 9 23 257 21 77 87 -79 21 return
          </CharString>
          <CharString index="132">
            -117 56 -39 68 70 39 21 29 18 -14 20 -22 -20 -13 -11 -23 -6 vhcurveto
            -15 -3 -7 -9 -14 hhcurveto
            -24 -20 36 76 hvcurveto
            return
          </CharString>
          <CharString index="133">
            21 -20 30 hstemhm
            hintmask 00000000
            hintmask 11000000
            189 440 -74 callgsubr
            return
          </CharString>
          <CharString index="134">
            -251 53 callsubr
            60 180 vstem
            return
          </CharString>
          <CharString index="135">
            -10 rmoveto
            29 -18 389 622 -29 18 rlineto
            return
          </CharString>
          <CharString index="136">
            rlineto
            -10 callsubr
            return
          </CharString>
          <CharString index="137">
            -68 -192 66 545 21 return
          </CharString>
          <CharString index="138">
            31 hmoveto
            39 callsubr
            return
          </CharString>
          <CharString index="139">
            rmoveto
            -91 -35 -77 -47 hvcurveto
            28 hlineto
            25 31 27 67 67 31 -28 -24 vhcurveto
            28 hlineto
            47 -36 77 -90 vhcurveto
            endchar
          </CharString>
          <CharString index="140">
            rmoveto
            -195 -278 rlineto
            -19 36 -11 49 64 vvcurveto
            89 45 82 73 44 37 -13 -29 26 vhcurveto
            20 -29 rmoveto
            return
          </CharString>
          <CharString index="141">
            rmoveto
            -33 vlineto
            50 38 39 50 50 -38 39 -50 hvcurveto
            -33 vlineto
            31 25 -25 -31 -31 -25 -25 -31 hvcurveto
            endchar
          </CharString>
          <CharString index="142">
            rmoveto
            27 vlineto
            -26 -21 21 26 26 21 21 26 hvcurveto
            27 vlineto
            -42 -32 -32 -42 -42 32 -32 42 hvcurveto
            endchar
          </CharString>
          <CharString index="143">
            rmoveto
            -27 vlineto
            26 21 114 callsubr
            -21 -26 hvcurveto
            -27 vlineto
            42 32 32 42 42 -32 32 -42 hvcurveto
            endchar
          </CharString>
          <CharString index="144">
            21 -59 callgsubr
            return
          </CharString>
          <CharString index="145">
            34 230 34 return
          </CharString>
          <CharString index="146">
            -54 callgsubr
            -46 -55 hvcurveto
            return
          </CharString>
          <CharString index="147">
            36 -37 42 -93 vhcurveto
            -118 -20 hlineto
            17 12 -2 -4 2 hvcurveto
            -249 vlineto
            -3 -2 -7 -4 -22 hhcurveto
            return
          </CharString>
          <CharString index="148">
            -17 -22 -34 -15 -54 hhcurveto
            -70 -49 128 70 130 69 68 68 44 29 -11 -11 19 hvcurveto
            endchar
          </CharString>
          <CharString index="149">
            -66 callsubr
            endchar
          </CharString>
          <CharString index="150">
            -21 rmoveto
            195 21 hlineto
            return
          </CharString>
          <CharString index="151">
            90 callgsubr
            hstemhm
            51 23 -22 75 return
          </CharString>
          <CharString index="152">
            92 -52 23 -12 87 callgsubr
            return
          </CharString>
          <CharString index="153">
            118 callgsubr
            125 20 hstemhm
            return
          </CharString>
          <CharString index="154">
            30 22 callgsubr
            return
          </CharString>
          <CharString index="155">
            48 -27 35 -49 -22 -28 -12 -28 -12 13 -18 16 vhcurveto
            10 10 10 10 hhcurveto
            18 17 -17 -17 return
          </CharString>
          <CharString index="156">
            552 56 callsubr
          </CharString>
          <CharString index="157">
            -163 296 44 hstem
            62 264 vstem
            62 340 42 callsubr
          </CharString>
          <CharString index="158">
            -63 callsubr
            225 return
          </CharString>
          <CharString index="159">
            rmoveto
            -44 364 44 vlineto
            return
          </CharString>
          <CharString index="160">
            500 162 hstem
            return
          </CharString>
          <CharString index="161">
            rmoveto
            hintmask 01110000
            74 204 vlineto
            hintmask 10110000
            -74 36 110 -276 -110 vlineto
            endchar
          </CharString>
          <CharString index="162">
            -617 -100 callgsubr
            return
          </CharString>
          <CharString index="163">
            -100 callgsubr
            endchar
          </CharString>
          <CharString index="164">
            30 154 22 128 50 hstemhm
            226 67 -47 65 hintmask 00000000
            hintmask 11101000
            152 return
          </CharString>
          <CharString index="165">
            46 -8 46 hstemhm
            0 19 260 19 hintmask 00000000
            return
          </CharString>
          <CharString index="166">
            0 21 389 30 160 30 hstem
            89 90 return
          </CharString>
          <CharString index="167">
            78 callsubr
            23 20 return
          </CharString>
          <CharString index="168">
            21 467 97 -34 34 hstemhm
            return
          </CharString>
          <CharString index="169">
            0 21 398 21 return
          </CharString>
          <CharString index="170">
            rmoveto
            41 21 39 33 45 28 -28 -80 -47 -21 -34 -34 -38 -34 28 81 vhcurveto
            return
          </CharString>
          <CharString index="171">
            -63 -71 vlineto
            11 -9 10 -14 -16 -13 -12 -14 -16 16 -14 24 vhcurveto
            82 hlineto
            return
          </CharString>
          <CharString index="172">
            rmoveto
            -50 hlineto
            -94 -162 rlineto
            26 hlineto
            93 87 93 -87 rlineto
            26 hlineto
            endchar
          </CharString>
          <CharString index="173">
            -73 60 -30 72 18 10 14 20 vhcurveto
            endchar
          </CharString>
          <CharString index="174">
            21 -21 34 522 29 -21 21 return
          </CharString>
          <CharString index="175">
            70 -58 87 callgsubr
            return
          </CharString>
          <CharString index="176">
            34 537 34 return
          </CharString>
          <CharString index="177">
            -31 29 -27 28 35 22 33 28 31 -30 26 -28 -35 -21 -32 -28 vhcurveto
            return
          </CharString>
          <CharString index="178">
            hstem
            40 160 vstem
            120 301 rmoveto
            80 139 rlineto
            -160 hlineto
            return
          </CharString>
          <CharString index="179">
            21 245 34 251 34 -21 21 hstemhm
            return
          </CharString>
          <CharString index="180">
            800 rmoveto
            -106 hlineto
            return
          </CharString>
          <CharString index="181">
            90 -8 27 103 20 113 27 116 26 93 27 hstem
            45 27 return
          </CharString>
          <CharString index="182">
            43 -14 33 -22 20 -15 27 29 rcurveline
            -27 20 -36 26 -60 15 rrcurveto
            return
          </CharString>
          <CharString index="183">
            -6 -6 -4 -8 -10 vvcurveto
            -24 19 -15 20 20 23 14 26 57 return
          </CharString>
          <CharString index="184">
            66 -10 34 244 21 272 34 return
          </CharString>
          <CharString index="185">
            82 callgsubr
            110 23 return
          </CharString>
          <CharString index="186">
            -13 callgsubr
            46 55 hvcurveto
            315 return
          </CharString>
          <CharString index="187">
            92 hintmask 00000000
            hintmask 00110000
            return
          </CharString>
          <CharString index="188">
            23 43 -20 84 116 hstemhm
            return
          </CharString>
          <CharString index="189">
            34 514 87 -64 34 return
          </CharString>
          <CharString index="190">
            29 -10 -11 19 hvcurveto
            return
          </CharString>
          <CharString index="191">
            -5 callgsubr
            -49 -18 return
          </CharString>
          <CharString index="192">
            22 10 16 40 vhcurveto
            30 55 -38 41 hhcurveto
            -59 -114 rmoveto
            return
          </CharString>
          <CharString index="193">
            47 52 30 -52 47 -30 -47 -52 -30 52 -47 vlineto
            endchar
          </CharString>
          <CharString index="194">
            -2 -4 5 hvcurveto
            -68 -143 -72 147 rlineto
            2 6 return
          </CharString>
          <CharString index="195">
            vstem
            26 callgsubr
            return
          </CharString>
          <CharString index="196">
            585 53 callgsubr
            42 17 -7 -14 5 hvcurveto
            return
          </CharString>
          <CharString index="197">
            0 21 382 76 86 30 hstem
            return
          </CharString>
          <CharString index="198">
            hstemhm
            39 95 -64 88 return
          </CharString>
          <CharString index="199">
            21 -21 34 256 29 232 34 -21 21 hstemhm
            return
          </CharString>
          <CharString index="200">
            -167 116 callsubr
            return
          </CharString>
          <CharString index="201">
            40 vstem
            68 620 rmoveto
            -620 40 620 vlineto
            return
          </CharString>
          <CharString index="202">
            43 94 43 hstem
            -344 43 94 43 vstem
            -301 return
          </CharString>
          <CharString index="203">
            rmoveto
            -85 -57 -30 144 30 -57 85 vlineto
            endchar
          </CharString>
          <CharString index="204">
            68 -19 callgsubr
            return
          </CharString>
          <CharString index="205">
            -23 callsubr
            23 20 return
          </CharString>
          <CharString index="206">
            23 9 34 hstem
            85 90 return
          </CharString>
          <CharString index="207">
            -200 162 return
          </CharString>
          <CharString index="208">
            hlineto
            -27 -196 rlineto
            35 hlineto
            27 196 rlineto
            return
          </CharString>
          <CharString index="209">
            33 112 33 hstem
            -266 32 vstem
            -322 return
          </CharString>
          <CharString index="210">
            -265 -220 220 hstem
            40 206 vstem
            return
          </CharString>
          <CharString index="211">
            292 rmoveto
            -163 110 -139 167 return
          </CharString>
          <CharString index="212">
            -20 -26 5 28 -25 hhcurveto
            -14 -10 -6 -12 -13 return
          </CharString>
          <CharString index="213">
            -259 -206 206 hstem
            36 220 vstem
            return
          </CharString>
          <CharString index="214">
            30 0 21 245 34 251 34 -21 21 return
          </CharString>
          <CharString index="215">
            56 274 50 hstem
            229 75 vstem
            263 return
          </CharString>
          <CharString index="216">
            hlineto
            27 195 rlineto
            -35 hlineto
            -27 -195 rlineto
            return
          </CharString>
          <CharString index="217">
            85 57 30 -144 -30 57 -85 vlineto
            endchar
          </CharString>
          <CharString index="218">
            34 396 34 110 23 return
          </CharString>
          <CharString index="219">
            48 -59 callgsubr
            return
          </CharString>
          <CharString index="220">
            162 hstemhm
            39 96 return
          </CharString>
          <CharString index="221">
            -21 -26 -26 -21 return
          </CharString>
          <CharString index="222">
            69 callsubr
            25 162 hstemhm
            44 100 return
          </CharString>
          <CharString index="223">
            102 -66 callgsubr
            return
          </CharString>
          <CharString index="224">
            39 117 hvcurveto
            return
          </CharString>
        <CharString name=".notdef">
          -51 0 50 433 50 hstem
          50 50 300 50 vstem
          50 hmoveto
          400 533 -400 hlineto
          50 -483 rmoveto
          433 300 -433 vlineto
          endchar
        </CharString>
        <CharString name="A">
          -5 0 39 callgsubr
          366 -20 hstem
          336 hmoveto
          -107 callgsubr
        </CharString>
        <CharString name="AE">
          206 0 21 -21 34 152 33 68 38 callsubr
          -21 21 hstemhm
          355 92 160 -26 callsubr
          hintmask 1011001110000000
          142 hmoveto
          21 vlineto
          -40 -15 5 13 -7 hvcurveto
          82 147 rlineto
          193 -145 hlineto
          -13 callsubr
          424 vlineto
          24 97 rlineto
          -20 hlineto
          hintmask 0111101110000000
          -102 callsubr
          hintmask 1011011110000000
          97 -424 -21 vlineto
          32 16 -3 -8 9 hvcurveto
          -287 -512 rlineto
          -12 -7 -14 -8 -42 hhcurveto
          -21 vlineto
          203 219 rmoveto
          174 311 rlineto
          -311 vlineto
          endchar
        </CharString>
        <CharString name="Aacute">
          -60 callsubr
          35 162 hstem
          263 180 vstem
          337 782 rmoveto
          -96 callgsubr
          -107 -782 rmoveto
          -107 callgsubr
        </CharString>
        <CharString name="Abreve">
          -60 callsubr
          45 72 hstem
          150 57 callgsubr
          vstem
          276 630 -92 callgsubr
          60 -630 rmoveto
          -107 callgsubr
        </CharString>
        <CharString name="Acircumflex">
          -60 callsubr
          35 162 hstem
          157 238 vstem
          301 782 rmoveto
          -50 hlineto
          -94 -162 rlineto
          26 hlineto
          93 87 93 -87 rlineto
          26 hlineto
          -59 -620 rmoveto
          -107 callgsubr
        </CharString>
        <CharString name="Adieresis">
          -60 callsubr
          35 98 hstem
          135 98 86 98 vstem
          319 -72 callgsubr
          201 -669 rmoveto
          -107 callgsubr
        </CharString>
        <CharString name="Adotbelow">
          93 callgsubr
          hstem
          198 102 vstem
          198 -102 -42 callgsubr
        </CharString>
        <CharString name="Agrave">
          -60 callsubr
          35 162 hstem
          122 180 vstem
          228 782 rmoveto
          -106 hlineto
          154 -162 rlineto
          26 hlineto
          34 -620 rmoveto
          -107 callgsubr
        </CharString>
        <CharString name="Alphalatin">
          90 -10 34 -24 21 540 34 hstemhm
          46 95 314 90 hintmask 00000000
          hintmask 10111000
          545 595 rmoveto
          23 callsubr
          hintmask 01111000
          -17 153 -92 callsubr
          -90 8 rmoveto
          hintmask 10111000
          32 callgsubr
        </CharString>
        <CharString name="Amacron">
          -60 callsubr
          49 44 hstem
          138 264 vstem
          138 91 callgsubr
          -66 -678 rmoveto
          -107 callgsubr
        </CharString>
        <CharString name="Aogonek">
          -5 -200 34 166 -46 callgsubr
          hstem
          426 49 vstem
          241 452 rmoveto
          85 -233 rlineto
          -168 hlineto
          178 -219 rmoveto
          138 hlineto
          -18 -17 -30 -35 -51 -77 callsubr
          21 16 24 11 14 vhcurveto
          53 21 hlineto
          -42 -17 7 14 -5 hvcurveto
          -194 543 rlineto
          -48 hlineto
          -194 -543 rlineto
          -14 -5 -16 -7 -42 hhcurveto
          -21 164 21 vlineto
          -40 -15 5 13 -7 hvcurveto
          52 147 rlineto
          192 hlineto
          56 -153 rlineto
          -8 -8 -17 -4 -33 hhcurveto
          endchar
        </CharString>
        <CharString name="Aring">
          -60 callsubr
          14 43 94 43 hstem
          186 43 94 43 vstem
          229 689 -77 callgsubr
          150 -689 rmoveto
          -107 callgsubr
        </CharString>
        <CharString name="Atilde">
          -60 callsubr
          35 101 callgsubr
          127 74 callgsubr
          vstem
          351 -83 callgsubr
          -15 -620 rmoveto
          -107 callgsubr
        </CharString>
        <CharString name="B">
          7 0 92 callsubr
          105 92 181 100 -56 100 hintmask 00000000
          hintmask 01100101
          197 290 rmoveto
          73 hlineto
          2 callgsubr
          hintmask 00110110
          517 vmoveto
          -3 callgsubr
          hintmask 10100101
          -155 -319 rmoveto
          hintmask 01110101
          -3 callsubr
          hintmask 00110110
          9 callsubr
          hintmask 10101101
          -184 -21 hlineto
          -78 callsubr
        </CharString>
        <CharString name="C">
          11 -17 callsubr
          -10 -20 hstemhm
          42 104 322 112 callgsubr
          hintmask 11010100
          346 561 rmoveto
          21 callgsubr
          hintmask 10111000
          -69 callgsubr
          hintmask 11010100
          -19 -41 30 -51 hhcurveto
          -157 -146 -117 -194 -152 102 -142 186 123 58 70 60 25 hvcurveto
          -28 callgsubr
          86 103 114 hvcurveto
          endchar
        </CharString>
        <CharString name="Cacute">
          11 -10 34 537 25 callgsubr
          42 104 185 180 -43 23 -12 22 -10 callgsubr
          405 782 rmoveto
          -96 callgsubr
          hintmask 11001001
          -165 -221 -79 callsubr
        </CharString>
        <CharString name="Ccaron">
          11 -10 34 537 25 callgsubr
          42 104 80 238 4 23 -12 22 -10 callgsubr
          320 620 -90 callgsubr
          hintmask 11001001
          120 -221 -79 callsubr
        </CharString>
        <CharString name="Ccedilla">
          13 113 callgsubr
          69 callsubr
          -30 20 hstemhm
          44 104 196 87 39 112 callgsubr
          hintmask 11101101
          348 561 rmoveto
          21 callgsubr
          hintmask 11011110
          -69 callgsubr
          hintmask 11101101
          -19 -41 30 -51 hhcurveto
          -157 -146 -117 -194 -144 92 -135 169 -13 hvcurveto
          -22 -77 rlineto
          -85 callgsubr
          12 45 115 4 55 68 24 58 rlinecurve
          -28 callgsubr
          86 103 114 hvcurveto
          endchar
        </CharString>
        <CharString name="Ccircumflex">
          11 -10 34 537 25 callgsubr
          42 104 79 238 5 23 -12 22 -10 callgsubr
          369 782 63 callgsubr
          -117 -59 -79 callsubr
        </CharString>
        <CharString name="Cdotaccent">
          11 -17 callsubr
          -30 20 36 102 hstemhm
          42 104 147 102 73 23 -12 22 -10 callgsubr
          293 672 -100 callgsubr
          hintmask 11001001
          53 -111 -79 callsubr
        </CharString>
        <CharString name="D">
          60 0 67 callsubr
          hstemhm
          105 92 270 100 hintmask 00000000
          hintmask 10001100
          42 hmoveto
          hintmask 01101100
          -52 callsubr
          hintmask 10011100
          -26 callgsubr
          hintmask 01101100
          155 535 rmoveto
          -34 callgsubr
          endchar
        </CharString>
        <CharString name="Dcaron">
          60 0 67 callsubr
          35 162 hstemhm
          105 92 -47 238 79 100 hintmask 00000000
          hintmask 00001010
          244 620 -90 callgsubr
          hintmask 10000101
          -108 -782 rmoveto
          hintmask 01100101
          -52 callsubr
          hintmask 10010101
          -26 callgsubr
          hintmask 01100101
          155 535 rmoveto
          -34 callgsubr
          endchar
        </CharString>
        <CharString name="Dcroat">
          60 0 21 -21 34 241 34 247 29 -21 21 hstemhm
          hintmask 01110000
          197 275 rmoveto
          102 34 -102 247 -34 callgsubr
          -155 -34 rmoveto
          -52 callsubr
          -230 hlineto
          hintmask 10101000
          -21 vlineto
          -104 callgsubr
          -235 -70 -34 70 -234 -59 callsubr
        </CharString>
        <CharString name="E">
          -44 0 37 callgsubr
          160 21 46 21 hintmask 00000000
          hintmask 10100111
          42 hmoveto
          -64 callsubr
          hintmask 01110111
          -102 callsubr
          hintmask 10101111
          -91 callgsubr
        </CharString>
        <CharString name="Eacute">
          -68 callgsubr
          35 162 hstemhm
          105 92 58 180 -78 -26 callsubr
          hintmask 0000010100000000
          329 782 rmoveto
          -96 callgsubr
          hintmask 1010001011000000
          -393 -782 -66 callgsubr
          hintmask 0111001011000000
          -102 callsubr
          hintmask 1010101011000000
          -91 callgsubr
        </CharString>
        <CharString name="Ebreve">
          -68 callgsubr
          45 72 hstemhm
          105 92 -55 28 187 21 -12 28 30 37 callsubr
          hintmask 0000010101000000
          268 630 -92 callgsubr
          hintmask 1010001010100000
          -226 -630 -66 callgsubr
          hintmask 0111001010100000
          -102 callsubr
          hintmask 1010101010100000
          -91 callgsubr
        </CharString>
        <CharString name="Ecaron">
          -68 callgsubr
          35 162 hstemhm
          105 92 -47 238 -31 -26 callsubr
          hintmask 0000010100000000
          244 620 -90 callgsubr
          hintmask 1010001011000000
          -108 -782 -66 callgsubr
          hintmask 0111001011000000
          -102 callsubr
          hintmask 1010101011000000
          -91 callgsubr
        </CharString>
        <CharString name="Ecedilla">
          -44 -199 22 177 37 callgsubr
          80 87 -7 -26 callsubr
          hintmask 1101001101000000
          42 hmoveto
          hintmask 1011001101000000
          199 hlineto
          -25 -86 rlineto
          -85 callgsubr
          15 55 rlineto
          hintmask 1101001011000000
          187 hlineto
          24 97 rlineto
          -20 hlineto
          hintmask 1011101011000000
          -102 callsubr
          hintmask 1101011101000000
          -91 callgsubr
        </CharString>
        <CharString name="Ecircumflex">
          -68 callgsubr
          35 162 hstemhm
          105 92 -48 238 -30 -26 callsubr
          hintmask 0000010100000000
          293 782 rmoveto
          -50 hlineto
          -94 -162 rlineto
          26 hlineto
          93 87 93 -87 rlineto
          26 hlineto
          hintmask 1010001011000000
          -345 -620 -66 callgsubr
          hintmask 0111001011000000
          -102 callsubr
          hintmask 1010101011000000
          -91 callgsubr
        </CharString>
        <CharString name="Edieresis">
          -68 callgsubr
          35 98 hstemhm
          105 92 -70 98 86 98 -52 -26 callsubr
          hintmask 0000010110000000
          311 -72 callgsubr
          hintmask 1010001001100000
          -85 -669 -66 callgsubr
          hintmask 0111001001100000
          -102 callsubr
          hintmask 1010101001100000
          -91 callgsubr
        </CharString>
        <CharString name="Edotaccent">
          -68 callgsubr
          36 102 hstemhm
          105 92 20 102 38 -26 callsubr
          hintmask 0000010100000000
          217 672 -100 callgsubr
          hintmask 1010001011000000
          -175 -672 -66 callgsubr
          hintmask 0111001011000000
          -102 callsubr
          hintmask 1010101011000000
          -91 callgsubr
        </CharString>
        <CharString name="Edotbelow">
          -46 38 callgsubr
          51 callgsubr
          104 92 12 102 46 -26 callsubr
          hintmask 1000000100000000
          208 -97 callgsubr
          hintmask 0101001011000000
          93 callsubr
          hintmask 0011101011000000
          -102 callsubr
          hintmask 0101011011000000
          -91 callgsubr
        </CharString>
        <CharString name="Egrave">
          -68 callgsubr
          35 162 hstemhm
          105 92 -83 180 63 -26 callsubr
          hintmask 0000010100000000
          220 782 rmoveto
          -106 hlineto
          154 -162 rlineto
          26 hlineto
          hintmask 1010001011000000
          -252 -620 -66 callgsubr
          hintmask 0111001011000000
          -102 callsubr
          hintmask 1010101011000000
          -91 callgsubr
        </CharString>
        <CharString name="Emacron">
          -68 callgsubr
          49 44 hstemhm
          105 92 -67 264 -37 -26 callsubr
          hintmask 0000010100000000
          130 91 callgsubr
          hintmask 1010001011000000
          -352 -678 -66 callgsubr
          hintmask 0111001011000000
          -102 callsubr
          hintmask 1010101011000000
          -91 callgsubr
        </CharString>
        <CharString name="Eng">
          95 -10 30 -20 21 540 34 -31 21 hstemhm
          105 92 307 92 hintmask 00000000
          hintmask 01101100
          26 callgsubr
          385 vlineto
          76 38 65 59 58 hhcurveto
          110 36 -110 -169 hvcurveto
          hintmask 10101100
          -180 -31 -82 -61 -20 -4 10 20 -10 vhcurveto
          27 -14 -12 17 -20 hhcurveto
          -22 -20 -18 -18 -46 76 -22 56 106 68 106 214 212 -96 73 -132 -59 -65 -39 -65 -47 hvcurveto
          hintmask 01011100
          94 -155 -21 vlineto
          -78 callsubr
        </CharString>
        <CharString name="Eogonek">
          -44 -200 34 166 37 callgsubr
          145 49 -34 -26 callsubr
          hintmask 1101001101000000
          42 hmoveto
          348 hlineto
          -18 -17 -30 -35 -51 -77 callsubr
          21 16 24 11 14 vhcurveto
          hintmask 1011101011000000
          48 hlineto
          24 97 rlineto
          -20 hlineto
          -102 callsubr
          hintmask 1101011101000000
          -91 callgsubr
        </CharString>
        <CharString name="Eopen">
          -29 -10 34 284 34 219 34 -10 -20 hstemhm
          47 104 -90 104 252 112 callgsubr
          hintmask 11100101
          325 308 rmoveto
          34 vlineto
          -109 -51 41 83 50 39 45 98 54 64 -37 callsubr
          hintmask 11010110
          -69 callgsubr
          hintmask 11100100
          -19 -24 30 -61 hhcurveto
          -138 -102 -27 -124 -61 48 -39 68 -20 hvcurveto
          hintmask 11101000
          -94 -29 -36 -60 -74 vvcurveto
          -56 42 -115 200 136 47 70 60 25 vhcurveto
          84 callsubr
          -72 -59 -74 hhcurveto
          -94 -64 54 96 84 60 50 114 hvcurveto
          endchar
        </CharString>
        <CharString name="Eth">
          56 -1 21 -21 34 522 30 hstemhm
          14 21 66 92 -40 40 270 100 hintmask 00000000
          hintmask 10110110
          38 -1 rmoveto
          hintmask 01110110
          242 hlineto
          167 116 120 174 172 -116 120 -179 hvcurveto
          -75 70 -40 -70 -139 -93 21 hlineto
          42 6 15 14 6 vhcurveto
          98 -85 40 85 75 hlineto
          58 62 -29 -69 38 hvcurveto
          hintmask 10111010
          -242 -14 -83 -117 -172 vvcurveto
          -114 vlineto
          -102 callgsubr
          402 407 rmoveto
          14 -36 9 -45 -54 vvcurveto
          hintmask 01110110
          -189 -103 -70 -80 vhcurveto
          -87 hlineto
          hintmask 01111010
          159 vlineto
          120 64 103 183 12 vhcurveto
          endchar
        </CharString>
        <CharString name="Eturned">
          -68 callgsubr
          hstemhm
          62 21 46 21 160 92 hintmask 00000000
          hintmask 10101111
          465 hmoveto
          -92 callsubr
          503 vlineto
          14 6 15 6 42 hhcurveto
          21 -403 -97 21 vlineto
          hintmask 01110111
          42 6 15 14 6 vhcurveto
          207 -230 -140 hlineto
          -14 6 -6 15 42 vvcurveto
          -21 -160 21 hlineto
          42 6 15 14 6 vhcurveto
          140 -253 -228 hlineto
          -14 6 -17 21 -14 36 rrcurveto
          -20 hlineto
          hintmask 10101111
          24 -97 rlineto
          endchar
        </CharString>
        <CharString name="Euro">
          -11 -10 34 196 44 76 44 177 34 hstem
          82 104 277 22 vstem
          485 540 rmoveto
          0 -46 55 -111 -103 -98 -78 -133 -33 vhcurveto
          -34 hlineto
          -16 -44 rlineto
          42 hlineto
          -2 -18 -2 -19 -19 vvcurveto
          -20 -38 vlineto
          -16 -44 rlineto
          59 hlineto
          -126 20 81 -104 128 hhcurveto
          127 20 47 55 35 hvcurveto
          -22 16 rlineto
          -45 -26 -39 -39 -79 hhcurveto
          -69 -55 66 130 -17 hvcurveto
          173 hlineto
          16 44 rlineto
          -193 hlineto
          -1 13 0 14 15 vvcurveto
          12 0 11 1 11 vhcurveto
          195 hlineto
          16 44 rlineto
          -207 hlineto
          108 15 49 69 74 hhcurveto
          88 38 -37 callsubr
          endchar
        </CharString>
        <CharString name="F">
          -81 110 callgsubr
          105 92 160 21 46 21 hintmask 00000000
          hintmask 11101110
          26 callgsubr
          246 140 vlineto
          -98 callsubr
          hlineto
          hintmask 11011110
          -91 callgsubr
        </CharString>
        <CharString name="G">
          77 callsubr
          -10 -20 hstemhm
          40 104 302 92 -52 112 callgsubr
          hintmask 11101001
          354 561 rmoveto
          86 49 -37 callsubr
          hintmask 11011010
          -69 callgsubr
          hintmask 11101100
          -88 callgsubr
        </CharString>
        <CharString name="Gamma">
          -89 0 21 530 34 -21 21 hstemhm
          105 92 227 21 hintmask 00000000
          hintmask 11011000
          197 551 rmoveto
          -73 callgsubr
          hlineto
          hintmask 10111000
          97 -403 -21 vlineto
          -104 callgsubr
          -503 -89 callsubr
          endchar
        </CharString>
        <CharString name="Gbreve">
          102 callgsubr
          45 72 hstemhm
          40 104 72 57 callgsubr
          -22 45 callsubr
          hintmask 0000101100000000
          342 630 -92 callgsubr
          hintmask 1110010000100000
          12 -69 rmoveto
          86 49 -37 callsubr
          hintmask 1101010001000000
          -69 callgsubr
          hintmask 1110010010000000
          -88 callgsubr
        </CharString>
        <CharString name="Gcaron">
          102 callgsubr
          35 162 hstemhm
          40 104 80 238 -16 45 callsubr
          hintmask 0000101000000000
          318 620 -90 callgsubr
          hintmask 1110010001000000
          130 -221 rmoveto
          86 49 -37 callsubr
          hintmask 1101010010000000
          -69 callgsubr
          hintmask 1110010100000000
          -88 callgsubr
        </CharString>
        <CharString name="Gcircumflex">
          102 callgsubr
          35 162 hstemhm
          40 104 79 238 -15 45 callsubr
          hintmask 0000101000000000
          367 782 rmoveto
          -50 hlineto
          -94 -162 rlineto
          26 hlineto
          93 87 93 -87 rlineto
          26 hlineto
          hintmask 1110010001000000
          -107 -59 rmoveto
          86 49 -37 callsubr
          hintmask 1101010010000000
          -69 callgsubr
          hintmask 1110010100000000
          -88 callgsubr
        </CharString>
        <CharString name="Gcommaaccent">
          66 -9 callgsubr
          28 34 244 21 272 34 -30 20 hstemhm
          40 104 224 46 32 45 callsubr
          hintmask 1100000100000000
          327 -125 rmoveto
          -100 callsubr
          hintmask 0011101000100000
          27 686 rmoveto
          86 49 -37 callsubr
          hintmask 0011011001000000
          -69 callgsubr
          hintmask 0011101010000000
          -88 callgsubr
        </CharString>
        <CharString name="Gdotaccent">
          102 callgsubr
          36 102 hstemhm
          40 104 147 102 53 45 callsubr
          hintmask 0000101000000000
          291 672 -100 callgsubr
          hintmask 1110010001000000
          63 -111 rmoveto
          86 49 -37 callsubr
          hintmask 1101010010000000
          -69 callgsubr
          hintmask 1110010100000000
          -88 callgsubr
        </CharString>
        <CharString name="H">
          99 0 21 266 34 243 21 hstem
          105 92 256 92 88 callsubr
          246 256 -246 -89 callsubr
          503 -103 callsubr
          -223 -256 223 vlineto
          -60 callgsubr
          -102 callgsubr
          endchar
        </CharString>
        <CharString name="Hbar">
          99 0 21 266 34 82 34 127 21 hstem
          105 92 256 92 88 callsubr
          246 256 -246 -89 callsubr
          362 33 34 -33 107 -103 callsubr
          -107 -256 107 -103 callsubr
          -107 -35 -34 35 -362 vlineto
          -102 callgsubr
          411 382 rmoveto
          -82 -256 82 vlineto
          endchar
        </CharString>
        <CharString name="Hcircumflex">
          99 0 21 266 34 243 21 35 162 hstem
          105 92 10 238 8 92 vstem
          351 782 rmoveto
          -50 hlineto
          -94 -162 rlineto
          26 hlineto
          93 87 93 -87 rlineto
          26 hlineto
          -403 -620 rmoveto
          -63 callsubr
          246 256 -246 -89 callsubr
          503 -103 callsubr
          -223 -256 223 vlineto
          -60 callgsubr
          -102 callgsubr
          endchar
        </CharString>
        <CharString name="I">
          -249 0 -30 callsubr
          hstem
          105 92 vstem
          42 hmoveto
          -95 callgsubr
        </CharString>
        <CharString name="IJ">
          136 -10 36 -26 -30 callsubr
          hstemhm
          105 92 85 88 136 92 hintmask 00000000
          hintmask 10101100
          598 172 rmoveto
          372 -103 callsubr
          -336 vlineto
          -114 -5 -68 -79 -53 -17 20 7 -7 vhcurveto
          12 4 13 11 27 -27 callsubr
          47 -52 103 131 35 96 86 vhcurveto
          hintmask 01110000
          -556 -172 rmoveto
          -95 callgsubr
        </CharString>
        <CharString name="Iacute">
          -249 0 -30 callsubr
          35 162 hstemhm
          105 92 -61 180 hintmask 00000000
          hintmask 00101000
          210 782 rmoveto
          -96 callgsubr
          hintmask 11010000
          -274 -782 rmoveto
          -95 callgsubr
        </CharString>
        <CharString name="Ibreve">
          -249 0 -30 callsubr
          45 72 hstem
          23 28 54 92 50 28 vstem
          149 630 -92 callgsubr
          -107 -630 rmoveto
          -95 callgsubr
        </CharString>
        <CharString name="Icircumflex">
          -249 0 -30 callsubr
          35 162 hstemhm
          30 238 -163 80 callsubr
          174 782 rmoveto
          -50 hlineto
          -94 -162 rlineto
          26 hlineto
          93 87 93 -87 rlineto
          26 hlineto
          hintmask 11001000
          -226 -620 rmoveto
          -95 callgsubr
        </CharString>
        <CharString name="Idieresis">
          -249 0 -30 callsubr
          35 98 hstemhm
          8 98 -1 92 -5 98 hintmask 00000000
          hintmask 00110100
          192 -72 callgsubr
          hintmask 11001000
          34 -669 rmoveto
          -95 callgsubr
        </CharString>
        <CharString name="Idotaccent">
          -249 0 -30 callsubr
          36 102 hstemhm
          98 102 -95 80 callsubr
          98 672 -100 callgsubr
          hintmask 11001000
          -56 -672 rmoveto
          -95 callgsubr
        </CharString>
        <CharString name="Idotbelow">
          -251 38 callgsubr
          -30 callsubr
          hstemhm
          97 102 -95 92 hintmask 00000000
          hintmask 10010000
          97 -97 callgsubr
          hintmask 01101000
          -56 102 rmoveto
          -95 callgsubr
        </CharString>
        <CharString name="Igrave">
          -249 0 -30 callsubr
          35 162 hstemhm
          -5 180 -70 80 callsubr
          101 782 rmoveto
          -106 hlineto
          154 -162 rlineto
          26 hlineto
          hintmask 11001000
          -133 -620 rmoveto
          -95 callgsubr
        </CharString>
        <CharString name="Imacron">
          -249 0 -30 callsubr
          49 44 hstemhm
          18 264 -177 80 callsubr
          18 91 callgsubr
          hintmask 11001000
          -240 -678 rmoveto
          -95 callgsubr
        </CharString>
        <CharString name="Iogonek">
          -249 -200 34 166 -30 callsubr
          hstemhm
          105 92 -60 49 hintmask 00000000
          hintmask 11101000
          42 hmoveto
          143 hlineto
          -18 -17 -30 -35 -51 -77 callsubr
          21 16 24 11 14 vhcurveto
          47 21 hlineto
          hintmask 11110000
          -99 callsubr
          503 vlineto
          -60 callgsubr
          -102 callgsubr
          endchar
        </CharString>
        <CharString name="Iotalatin">
          -261 -8 30 542 21 hstem
          94 92 70 18 vstem
          186 585 rmoveto
          -155 -21 hlineto
          -104 callgsubr
          -432 vlineto
          -96 43 -24 45 69 23 17 37 vhcurveto
          -18 hlineto
          -14 -17 -10 -17 -17 -19 16 46 vhcurveto
          endchar
        </CharString>
        <CharString name="Istroke">
          -222 0 21 256 34 253 21 hstem
          123 92 vstem
          60 hmoveto
          -63 callsubr
          236 81 34 -81 233 -103 callsubr
          -233 -91 -34 91 -236 -59 callsubr
        </CharString>
        <CharString name="Itilde">
          -249 0 -30 callsubr
          35 101 callgsubr
          0 19 86 92 85 19 vstem
          224 -83 callgsubr
          -182 -620 rmoveto
          -95 callgsubr
        </CharString>
        <CharString name="J">
          -139 -10 36 538 21 hstem
          7 88 136 92 vstem
          323 172 rmoveto
          372 -103 callsubr
          -336 vlineto
          -114 -5 -68 -79 -53 -17 20 7 -7 vhcurveto
          12 4 13 11 27 -27 callsubr
          47 -52 103 131 35 96 86 vhcurveto
          endchar
        </CharString>
        <CharString name="Jcircumflex">
          -139 -10 36 538 21 35 162 hstemhm
          7 88 64 238 -166 92 hintmask 00000000
          hintmask 00101000
          303 782 rmoveto
          -50 hlineto
          -94 -162 rlineto
          26 hlineto
          93 87 93 -87 rlineto
          26 hlineto
          hintmask 11010100
          -74 -448 rmoveto
          372 -103 callsubr
          -336 vlineto
          -114 -5 -68 -79 -53 -17 20 7 -7 vhcurveto
          12 4 13 11 27 -27 callsubr
          47 -52 103 131 35 96 86 vhcurveto
          endchar
        </CharString>
        <CharString name="K">
          28 0 -30 callsubr
          hstem
          105 90 vstem
          42 hmoveto
          -72 callsubr
        </CharString>
        <CharString name="Kcommaaccent">
          28 19 callsubr
          543 21 hstem
          104 90 162 46 vstem
          315 -125 rmoveto
          -100 callsubr
          -274 125 rmoveto
          -72 callsubr
        </CharString>
        <CharString name="L">
          -56 0 21 -21 34 530 21 hstemhm
          105 92 hintmask 00000000
          hintmask 10110000
          42 hmoveto
          -64 callsubr
          hintmask 01110000
          -70 callgsubr
          hintmask 10110000
          -102 callgsubr
          endchar
        </CharString>
        <CharString name="Lacute">
          -56 0 21 -21 34 530 21 35 162 hstemhm
          105 92 -59 180 -10 callgsubr
          212 782 rmoveto
          -96 callgsubr
          hintmask 10101000
          -276 -782 -66 callgsubr
          hintmask 01101000
          -70 callgsubr
          hintmask 10101000
          -102 callgsubr
          endchar
        </CharString>
        <CharString name="Lcaron">
          -53 0 21 -21 34 351 28 108 74 -31 21 hstemhm
          105 92 191 46 hintmask 00000000
          hintmask 00110010
          347 508 rmoveto
          -100 callsubr
          hintmask 10001100
          -305 -508 -66 callgsubr
          hintmask 01001100
          -70 callgsubr
          hintmask 10001100
          -102 callgsubr
          endchar
        </CharString>
        <CharString name="Lcommaaccent">
          -58 19 callsubr
          -21 34 530 21 hstemhm
          104 92 114 46 hintmask 00000000
          hintmask 11000010
          269 -125 rmoveto
          -100 callsubr
          hintmask 00101100
          -228 125 -66 callgsubr
          hintmask 00011100
          -70 callgsubr
          hintmask 00101100
          -102 callgsubr
          endchar
        </CharString>
        <CharString name="Ldot">
          -55 0 21 -21 34 223 102 205 21 hstemhm
          105 92 108 102 hintmask 00000000
          hintmask 00100100
          305 308 -100 callgsubr
          hintmask 10011000
          -263 -308 -66 callgsubr
          hintmask 01011000
          -70 callgsubr
          hintmask 10011000
          -102 callgsubr
          endchar
        </CharString>
        <CharString name="Lslash">
          -56 0 21 -21 34 209 196 125 21 hstemhm
          39 224 -158 92 hintmask 00000000
          hintmask 10110100
          42 hmoveto
          hintmask 01110100
          -64 callsubr
          -14 -36 -17 -21 -14 -6 rrcurveto
          -228 323 hlineto
          hintmask 10111000
          66 56 -22 26 rlineto
          hintmask 10110100
          -44 -37 rlineto
          142 -103 callsubr
          -219 vlineto
          hintmask 10111000
          -66 -56 22 -26 rlineto
          hintmask 10110100
          44 37 rlineto
          -239 -59 callsubr
        </CharString>
        <CharString name="M">
          253 0 -30 callsubr
          hstem
          105 34 468 92 vstem
          42 59 callgsubr
          455 vlineto
          229 -496 rlineto
          15 hlineto
          224 490 rlineto
          -449 -89 callsubr
          503 vlineto
          14 6 15 6 42 hhcurveto
          21 -148 vlineto
          -213 -465 -213 465 rlineto
          -146 -21 hlineto
          -78 callsubr
        </CharString>
        <CharString name="N">
          86 0 -30 callsubr
          hstem
          105 34 368 34 vstem
          42 hmoveto
          -94 callsubr
        </CharString>
        <CharString name="Nacute">
          87 0 -30 callsubr
          35 162 hstem
          105 34 166 180 22 34 vstem
          379 782 rmoveto
          -96 callgsubr
          -443 -782 rmoveto
          -94 callsubr
        </CharString>
        <CharString name="Ncaron">
          87 0 -30 callsubr
          35 162 hstem
          105 34 61 238 69 34 vstem
          294 620 -90 callgsubr
          -158 -782 rmoveto
          -94 callsubr
        </CharString>
        <CharString name="Ncommaaccent">
          86 19 callsubr
          543 21 hstem
          104 34 224 46 98 34 vstem
          321 -125 rmoveto
          -100 callsubr
          -280 125 rmoveto
          -94 callsubr
        </CharString>
        <CharString name="Ntilde">
          87 0 -30 callsubr
          35 101 callgsubr
          105 34 30 74 callgsubr
          37 34 vstem
          393 -83 callgsubr
          -351 -620 rmoveto
          -94 callsubr
        </CharString>
        <CharString name="O">
          -32 callgsubr
          hstem
          44 100 354 100 vstem
          144 300 -107 callsubr
          endchar
        </CharString>
        <CharString name="OE">
          269 -10 34 -24 34 253 38 callsubr
          -24 34 hstemhm
          44 100 274 92 160 -26 callsubr
          hintmask 0111011110000000
          394 hmoveto
          385 hlineto
          24 97 rlineto
          -20 hlineto
          -101 callsubr
          97 -363 hlineto
          hintmask 1010111110000000
          7 -23 -25 3 -26 hhcurveto
          -165 -112 -140 -163 -163 110 -139 167 26 24 3 7 23 hvcurveto
          24 59 rmoveto
          -22 -25 -30 -13 -38 hhcurveto
          -125 -56 153 123 116 48 145 125 41 33 -17 -27 27 hvcurveto
          endchar
        </CharString>
        <CharString name="Oacute">
          9 callgsubr
          164 180 10 100 vstem
          382 782 rmoveto
          -96 callgsubr
          -344 -482 -107 callsubr
          endchar
        </CharString>
        <CharString name="Obar">
          90 -10 34 254 34 249 34 hstem
          44 101 353 100 vstem
          44 104 callsubr
          163 114 139 163 163 -112 140 -165 -165 -112 -140 -163 vhcurveto
          100 20 rmoveto
          114 3 49 135 121 hhcurveto
          114 58 -132 -117 8 hvcurveto
          1 -34 rmoveto
          -115 -2 -48 -139 -123 hhcurveto
          -118 -56 136 118 -6 hvcurveto
          endchar
        </CharString>
        <CharString name="Obreve">
          -32 callgsubr
          35 72 hstem
          44 100 51 57 callgsubr
          51 100 vstem
          321 630 -92 callgsubr
          -177 -330 -107 callsubr
          endchar
        </CharString>
        <CharString name="Ocircumflex">
          9 callgsubr
          58 238 58 100 cntrmask 00011100
          346 782 rmoveto
          -50 hlineto
          -94 -162 rlineto
          26 hlineto
          93 87 93 -87 rlineto
          26 hlineto
          -296 -320 -107 callsubr
          endchar
        </CharString>
        <CharString name="Odieresis">
          -32 callgsubr
          25 98 hstem
          44 100 36 98 86 98 36 100 vstem
          364 -72 callgsubr
          -36 -369 -107 callsubr
          endchar
        </CharString>
        <CharString name="Odotbelow">
          91 -153 102 41 69 callsubr
          hstem
          44 100 127 102 125 100 vstem
          271 -97 callgsubr
          -127 402 -107 callsubr
          endchar
        </CharString>
        <CharString name="Ograve">
          9 callgsubr
          23 180 151 100 vstem
          273 782 rmoveto
          -106 hlineto
          154 -162 rlineto
          26 hlineto
          -203 -320 -107 callsubr
          endchar
        </CharString>
        <CharString name="Ohorn">
          46 callgsubr
          hstemhm
          44 100 354 100 -5 48 hintmask 00000000
          hintmask 11011000
          44 292 -51 callsubr
          hintmask 11010100
          42 12 39 26 54 -81 callgsubr
          -29 -16 -22 -29 -11 hvcurveto
          hintmask 10111000
          -82 callsubr
        </CharString>
        <CharString name="Ohungarumlaut">
          90 -10 115 callsubr
          78 84 callgsubr
          -64 100 hintmask 00000000
          hintmask 00100100
          456 23 callgsubr
          -258 -482 -107 callsubr
          endchar
        </CharString>
        <CharString name="Omacron">
          -32 callgsubr
          39 44 hstem
          44 100 46 264 44 100 vstem
          190 91 callgsubr
          -310 -378 -107 callsubr
          endchar
        </CharString>
        <CharString name="Oopen">
          29 -10 30 79 76 386 34 hstem
          41 88 310 97 vstem
          239 20 rmoveto
          -76 -59 40 39 -10 hvcurveto
          16 19 10 31 -47 callsubr
          -70 64 -65 152 138 141 111 200 231 -197 63 -92 -113 -64 -63 -66 -29 hvcurveto
          24 -12 rlineto
          62 32 67 45 70 hhcurveto
          80 125 -78 -204 -180 -106 -79 -94 hvcurveto
          endchar
        </CharString>
        <CharString name="Oslash">
          -32 callgsubr
          hstem
          44 100 354 100 vstem
          432 501 -51 callgsubr
        </CharString>
        <CharString name="Oslashacute">
          9 callgsubr
          164 180 10 100 vstem
          382 782 rmoveto
          -96 callgsubr
          -56 -281 -51 callgsubr
        </CharString>
        <CharString name="Otilde">
          -32 callgsubr
          25 101 callgsubr
          44 100 28 74 callgsubr
          25 100 vstem
          396 -83 callgsubr
          -252 -320 -107 callsubr
          endchar
        </CharString>
        <CharString name="P">
          -13 0 72 callsubr
          105 92 223 100 hintmask 00000000
          hintmask 11101100
          42 hmoveto
          51 callsubr
          83 vlineto
          167 73 72 95 67 -73 85 -179 hvcurveto
          hintmask 11011100
          -38 callgsubr
          hintmask 11101100
          117 callgsubr
          -57 -62 -93 -36 -39 -104 hvcurveto
          -83 hlineto
          endchar
        </CharString>
        <CharString name="Q">
          90 -102 36 56 34 78 44 415 34 hstem
          44 100 354 100 vstem
          44 104 callsubr
          31 28 5 9 27 vhcurveto
          -52 28 41 -54 98 hhcurveto
          66 29 71 0 hvcurveto
          -15 11 rlineto
          0 -26 -46 -54 -46 -20 54 53 -29 vhcurveto
          74 55 45 93 103 vvcurveto
          163 -112 140 -165 -165 -112 -140 -163 vhcurveto
          187 -231 rmoveto
          17 16 30 24 49 hhcurveto
          31 16 -28 -35 17 hvcurveto
          -10 -19 -22 -5 -24 hhcurveto
          -38 -31 14 23 -25 hvcurveto
          215 30 rmoveto
          32 -26 -34 23 -54 hhcurveto
          -63 -36 -39 -29 -19 hvcurveto
          -48 56 -22 88 78 vvcurveto
          116 48 145 125 123 58 -154 -123 -66 -16 -75 -36 -52 vhcurveto
          endchar
        </CharString>
        <CharString name="R">
          107 callsubr
          hstemhm
          105 92 223 100 hintmask 00000000
          hintmask 11101100
          42 hmoveto
          -84 callsubr
          hintmask 11011100
          -38 callgsubr
          hintmask 11101100
          -33 callgsubr
        </CharString>
        <CharString name="Racute">
          72 callgsubr
          74 180 -31 100 hintmask 00000000
          hintmask 00001010
          345 782 rmoveto
          -96 callgsubr
          hintmask 11100101
          -409 -782 rmoveto
          -84 callsubr
          hintmask 11010101
          -38 callgsubr
          hintmask 11100101
          -33 callgsubr
        </CharString>
        <CharString name="Rcaron">
          72 callgsubr
          -31 238 16 100 hintmask 00000000
          hintmask 00001010
          260 620 -90 callgsubr
          hintmask 11100101
          -124 -782 rmoveto
          -84 callsubr
          hintmask 11010101
          -38 callgsubr
          hintmask 11100101
          -33 callgsubr
        </CharString>
        <CharString name="Rcommaaccent">
          29 -248 28 108 74 38 72 callsubr
          104 92 170 46 7 100 -59 callgsubr
          hintmask 1100000100000000
          325 -125 rmoveto
          -100 callsubr
          hintmask 0011101010000000
          -284 125 rmoveto
          -84 callsubr
          hintmask 0011011010000000
          -38 callgsubr
          hintmask 0011101010000000
          -33 callgsubr
        </CharString>
        <CharString name="S">
          -73 -10 34 -3 -21 561 34 -10 -20 hstemhm
          51 23 -22 75 233 18 callgsubr
          hintmask 1010010100000000
          249 -10 -50 callgsubr
          hintmask 0001000010000000
          86 49 -37 callsubr
          hintmask 0001011000000000
          -69 callgsubr
          hintmask 1010010100000000
          -68 callsubr
          hintmask 0100100100000000
          -29 callgsubr
        </CharString>
        <CharString name="Sacute">
          17 callgsubr
          87 180 -34 18 callgsubr
          hintmask 0000100100000000
          288 782 rmoveto
          -96 callgsubr
          hintmask 1010001001000000
          -145 -792 -75 callgsubr
        </CharString>
        <CharString name="Scaron">
          17 callgsubr
          -18 238 13 18 callgsubr
          hintmask 0000100100000000
          203 620 -90 callgsubr
          hintmask 1010001001000000
          140 -792 -75 callgsubr
        </CharString>
        <CharString name="Scedilla">
          -73 113 callgsubr
          44 callsubr
          129 87 17 18 callgsubr
          hintmask 1001001101000000
          255 -10 rmoveto
          91 2 100 52 104 vvcurveto
          91 -80 46 -77 47 vhcurveto
          -71 43 -91 31 66 vvcurveto
          34 34 55 67 vhcurveto
          hintmask 1000100100100000
          86 49 -37 callsubr
          hintmask 1000101110000000
          -69 callgsubr
          hintmask 1101001101000000
          -68 callsubr
          hintmask 1011010101000000
          -22 -139 23 hlineto
          12 15 8 7 16 41 -22 -6 64 vhcurveto
          -22 -78 rlineto
          -85 callgsubr
          endchar
        </CharString>
        <CharString name="Schwa">
          69 -10 34 222 34 281 34 hstem
          472 105 vstem
          472 246 rmoveto
          -134 -9 -68 -88 -106 hhcurveto
          -77 -64 89 133 -13 hvcurveto
          338 34 rmoveto
          -445 hlineto
          -171 116 -119 146 157 130 117 194 152 -102 142 -186 -123 -58 -70 -60 -25 vhcurveto
          24 -12 rlineto
          49 18 74 59 70 hhcurveto
          104 100 -96 -185 hvcurveto
          endchar
        </CharString>
        <CharString name="Scircumflex">
          17 callgsubr
          -19 238 14 18 callgsubr
          hintmask 0000100100000000
          252 782 rmoveto
          -50 hlineto
          -94 -162 rlineto
          26 hlineto
          93 87 93 -87 rlineto
          26 hlineto
          hintmask 1010001001000000
          -97 -630 -75 callgsubr
        </CharString>
        <CharString name="Scommaaccent">
          -73 -9 callgsubr
          28 44 callsubr
          157 46 30 18 callgsubr
          hintmask 1100000010000000
          243 -125 rmoveto
          -100 callsubr
          hintmask 0010100100100000
          6 115 -50 callgsubr
          hintmask 0000010000010000
          86 49 -37 callsubr
          hintmask 0000010101000000
          -69 callgsubr
          hintmask 0010100100100000
          -68 callsubr
          hintmask 0001001000100000
          -29 callgsubr
        </CharString>
        <CharString name="T">
          -31 callgsubr
          endchar
        </CharString>
        <CharString name="Tbar">
          -13 0 21 278 34 155 97 -34 34 hstemhm
          18 21 91 264 -171 92 184 21 hintmask 00000000
          hintmask 11101011
          18 585 rmoveto
          -97 21 vlineto
          hintmask 11011011
          -2 callgsubr
          -218 hlineto
          hintmask 11011101
          -93 -34 hlineto
          hintmask 11011011
          93 -258 hlineto
          -13 callsubr
          218 -92 callsubr
          258 vlineto
          hintmask 11011101
          79 34 hlineto
          hintmask 11011011
          -79 218 164 hlineto
          hintmask 11101011
          -7 callsubr
        </CharString>
        <CharString name="Tcaron">
          -31 callgsubr
          hintmask 10011100
          -276 70 -90 callgsubr
          endchar
        </CharString>
        <CharString name="Tcommaaccent">
          -13 -199 22 177 61 callsubr
          18 21 184 92 -28 87 125 21 hintmask 00000000
          hintmask 11101101
          18 585 rmoveto
          -97 21 vlineto
          hintmask 11011101
          -2 callgsubr
          -510 hlineto
          -13 callsubr
          91 vlineto
          -25 -86 rlineto
          hintmask 11011011
          -85 callgsubr
          15 55 rlineto
          89 21 hlineto
          hintmask 11011101
          -99 callsubr
          510 164 vlineto
          hintmask 11101101
          -7 callsubr
        </CharString>
        <CharString name="Thorn">
          -29 0 21 120 34 251 34 104 21 hstem
          105 92 204 100 88 callsubr
          100 64 vlineto
          167 73 72 95 81 -73 71 -179 hvcurveto
          -52 84 hlineto
          -60 callgsubr
          -102 callgsubr
          155 405 rmoveto
          52 hlineto
          122 30 -46 -73 -93 -36 -39 -104 hvcurveto
          -64 hlineto
          endchar
        </CharString>
        <CharString name="U">
          -25 callgsubr
          hstem
          88 92 316 34 vstem
          338 24 -50 callsubr
          310 -103 callsubr
          -296 vlineto
          -196 105 -62 135 107 95 74 184 vhcurveto
          296 vlineto
          14 6 15 6 42 hhcurveto
          21 -160 -21 vlineto
          -104 callgsubr
          -316 vlineto
          -126 -71 -78 -87 vhcurveto
          endchar
        </CharString>
        <CharString name="Uacute">
          -25 callgsubr
          35 162 hstemhm
          88 92 143 180 -7 34 hintmask 00000000
          hintmask 00101000
          397 782 rmoveto
          -96 callgsubr
          hintmask 11010100
          -165 -758 -50 callsubr
          310 -103 callsubr
          -296 vlineto
          -196 105 -62 135 107 95 74 184 vhcurveto
          296 vlineto
          14 6 15 6 42 hhcurveto
          21 -160 -21 vlineto
          -104 callgsubr
          -316 vlineto
          -126 -71 -78 -87 vhcurveto
          endchar
        </CharString>
        <CharString name="Ubar">
          67 -10 34 298 34 208 21 hstem
          88 92 316 34 vstem
          180 356 rmoveto
          188 -103 callsubr
          -188 -30 -34 30 -74 vlineto
          -196 105 -62 135 107 95 74 184 vhcurveto
          74 36 34 -36 188 vlineto
          14 6 15 6 42 hhcurveto
          21 -160 -21 vlineto
          -104 callgsubr
          -188 vlineto
          -158 -332 -50 callsubr
          88 316 -94 vlineto
          -126 -71 -78 -87 vhcurveto
          endchar
        </CharString>
        <CharString name="Ubreve">
          -25 callgsubr
          45 72 hstem
          88 92 30 57 callgsubr
          34 34 vstem
          336 630 -92 callgsubr
          2 -606 -50 callsubr
          310 -103 callsubr
          -296 vlineto
          -196 105 -62 135 107 95 74 184 vhcurveto
          296 vlineto
          14 6 15 6 42 hhcurveto
          21 -160 -21 vlineto
          -104 callgsubr
          -316 vlineto
          -126 -71 -78 -87 vhcurveto
          endchar
        </CharString>
        <CharString name="Ucircumflex">
          -25 callgsubr
          35 162 hstem
          88 92 37 238 41 34 vstem
          361 782 rmoveto
          -50 hlineto
          -94 -162 rlineto
          26 hlineto
          93 87 93 -87 rlineto
          26 hlineto
          -117 -596 -50 callsubr
          310 -103 callsubr
          -296 vlineto
          -196 105 -62 135 107 95 74 184 vhcurveto
          296 vlineto
          14 6 15 6 42 hhcurveto
          21 -160 -21 vlineto
          -104 callgsubr
          -316 vlineto
          -126 -71 -78 -87 vhcurveto
          endchar
        </CharString>
        <CharString name="Udieresis">
          -25 callgsubr
          35 98 hstem
          88 92 15 98 86 98 19 34 vstem
          379 -72 callgsubr
          143 -645 -50 callsubr
          310 -103 callsubr
          -296 vlineto
          -196 105 -62 135 107 95 74 184 vhcurveto
          296 vlineto
          14 6 15 6 42 hhcurveto
          21 -160 -21 vlineto
          -104 callgsubr
          -316 vlineto
          -126 -71 -78 -87 vhcurveto
          endchar
        </CharString>
        <CharString name="Udotbelow">
          67 -153 102 41 -2 callsubr
          hstem
          88 92 99 102 115 34 vstem
          279 -97 callgsubr
          59 126 -50 callsubr
          310 -103 callsubr
          -296 vlineto
          -196 105 -62 135 107 95 74 184 vhcurveto
          296 vlineto
          14 6 15 6 42 hhcurveto
          21 -160 -21 vlineto
          -104 callgsubr
          -316 vlineto
          -126 -71 -78 -87 vhcurveto
          endchar
        </CharString>
        <CharString name="Ugrave">
          -25 callgsubr
          35 162 hstem
          88 92 2 180 134 34 vstem
          288 782 rmoveto
          -106 hlineto
          154 -162 rlineto
          26 hlineto
          -24 -596 -50 callsubr
          310 -103 callsubr
          -296 vlineto
          -196 105 -62 135 107 95 74 184 vhcurveto
          296 vlineto
          14 6 15 6 42 hhcurveto
          21 -160 -21 vlineto
          -104 callgsubr
          -316 vlineto
          -126 -71 -78 -87 vhcurveto
          endchar
        </CharString>
        <CharString name="Uhorn">
          97 callsubr
          77 87 hstem
          88 92 316 34 92 48 vstem
          530 564 rmoveto
          -88 callsubr
          -97 -21 hlineto
          -104 callgsubr
          -316 vlineto
          -126 -71 -78 -87 -91 -67 74 136 vhcurveto
          310 -103 callsubr
          -296 vlineto
          -196 105 -62 135 107 95 74 184 vhcurveto
          endchar
        </CharString>
        <CharString name="Uhungarumlaut">
          -25 callgsubr
          35 162 hstemhm
          88 92 57 84 callgsubr
          -81 34 hintmask 00000000
          hintmask 00100100
          471 23 callgsubr
          -79 -758 -50 callsubr
          310 -103 callsubr
          -296 vlineto
          -196 105 -62 135 107 95 74 184 vhcurveto
          296 vlineto
          14 6 15 6 42 hhcurveto
          21 -160 -21 vlineto
          -104 callgsubr
          -316 vlineto
          -126 -71 -78 -87 vhcurveto
          endchar
        </CharString>
        <CharString name="Umacron">
          -25 callgsubr
          49 44 hstem
          88 92 18 264 34 34 vstem
          198 91 callgsubr
          -124 -654 -50 callsubr
          310 -103 callsubr
          -296 vlineto
          -196 105 -62 135 107 95 74 184 vhcurveto
          296 vlineto
          14 6 15 6 42 hhcurveto
          21 -160 -21 vlineto
          -104 callgsubr
          -316 vlineto
          -126 -71 -78 -87 vhcurveto
          endchar
        </CharString>
        <CharString name="Uogonek">
          69 114 callgsubr
          -2 callsubr
          hstem
          89 92 86 49 181 34 vstem
          339 24 -50 callsubr
          310 -103 callsubr
          -296 vlineto
          -185 93 -66 124 -7 15 callgsubr
          104 3 91 75 180 vvcurveto
          296 vlineto
          14 6 15 6 42 hhcurveto
          21 -160 -21 vlineto
          -104 callgsubr
          -316 vlineto
          -126 -71 -78 -87 vhcurveto
          endchar
        </CharString>
        <CharString name="Uring">
          -25 callgsubr
          14 43 94 43 hstem
          88 92 66 43 94 43 70 34 vstem
          289 689 -77 callgsubr
          92 -665 -50 callsubr
          310 -103 callsubr
          -296 vlineto
          -196 105 -62 135 107 95 74 184 vhcurveto
          296 vlineto
          14 6 15 6 42 hhcurveto
          21 -160 -21 vlineto
          -104 callgsubr
          -316 vlineto
          -126 -71 -78 -87 vhcurveto
          endchar
        </CharString>
        <CharString name="Utilde">
          -25 callgsubr
          35 101 callgsubr
          88 92 7 74 callgsubr
          8 34 vstem
          411 -83 callgsubr
          -73 -596 -50 callsubr
          310 -103 callsubr
          -296 vlineto
          -196 105 -62 135 107 95 74 184 vhcurveto
          296 vlineto
          14 6 15 6 42 hhcurveto
          21 -160 -21 vlineto
          -104 callgsubr
          -316 vlineto
          -126 -71 -78 -87 vhcurveto
          endchar
        </CharString>
        <CharString name="V">
          -7 21 -21 564 21 hstem
          209 89 callsubr
          194 -543 rlineto
          48 hlineto
          196 548 rlineto
          9 3 20 7 38 hhcurveto
          21 -164 -21 vlineto
          40 15 -5 -13 7 hvcurveto
          -147 -413 -153 419 29 callsubr
          endchar
        </CharString>
        <CharString name="Vhook">
          43 -10 34 532 39 -31 21 hstemhm
          88 92 125 84 122 36 hintmask 00000000
          hintmask 11011100
          407 556 rmoveto
          57 47 -108 -86 -192 -58 -146 -156 -52 -65 50 148 hvcurveto
          322 vlineto
          hintmask 10111100
          14 6 15 6 42 hhcurveto
          21 -218 -21 vlineto
          -104 callgsubr
          -292 vlineto
          -228 107 -34 108 172 72 156 212 vhcurveto
          hintmask 11011100
          112 -72 125 -88 -33 -49 -27 -38 -23 25 -22 22 20 17 24 15 10 -4 8 -6 6 vhcurveto
          6 9 9 2 10 hhcurveto
          endchar
        </CharString>
        <CharString name="Vturn">
          -5 0 21 564 -20 hstem
          336 hmoveto
          219 21 hlineto
          -42 -17 7 14 -5 hvcurveto
          -194 543 rlineto
          -48 hlineto
          -196 -548 rlineto
          -9 -3 -20 -7 -38 hhcurveto
          -21 164 21 vlineto
          -40 -15 5 13 -7 hvcurveto
          147 413 153 -419 rlineto
          -8 -8 -17 -4 -33 hhcurveto
          endchar
        </CharString>
        <CharString name="W">
          290 21 -21 564 21 hstem
          506 585 -90 callsubr
        </CharString>
        <CharString name="Wacute">
          290 0 -30 callsubr
          35 162 hstem
          387 180 vstem
          461 782 rmoveto
          -96 callgsubr
          -61 -197 -90 callsubr
        </CharString>
        <CharString name="Wcircumflex">
          290 0 -30 callsubr
          35 162 hstem
          281 238 vstem
          425 782 rmoveto
          -50 hlineto
          -94 -162 rlineto
          26 hlineto
          93 87 93 -87 rlineto
          26 hlineto
          -13 -35 -90 callsubr
        </CharString>
        <CharString name="Wdieresis">
          290 0 -30 callsubr
          35 98 hstem
          259 98 86 98 vstem
          443 -72 callgsubr
          247 -84 -90 callsubr
        </CharString>
        <CharString name="Wgrave">
          290 0 -30 callsubr
          35 162 hstem
          246 180 vstem
          352 782 rmoveto
          -106 hlineto
          154 -162 rlineto
          26 hlineto
          80 -35 -90 callsubr
        </CharString>
        <CharString name="X">
          -32 0 -30 callsubr
          hstem
          225 585 43 callgsubr
          17 -6 -14 8 hvcurveto
          152 -267 -150 -234 rlineto
          -13 -8 -14 -9 -42 hhcurveto
          -21 164 21 vlineto
          -37 -17 5 11 -7 hvcurveto
          132 205 119 -209 rlineto
          -9 -8 -17 -3 -33 hhcurveto
          -21 219 21 vlineto
          -38 -19 8 13 -7 hvcurveto
          -163 284 142 221 rlineto
          12 8 15 5 37 hhcurveto
          21 -164 -21 vlineto
          38 16 -5 -11 7 hvcurveto
          -119 -187 -109 191 rlineto
          9 8 17 3 33 hhcurveto
          endchar
        </CharString>
        <CharString name="Y">
          12 0 -30 callsubr
          hstem
          240 92 vstem
          210 585 -94 callgsubr
        </CharString>
        <CharString name="Yacute">
          12 0 -30 callsubr
          35 162 hstemhm
          240 92 -37 180 hintmask 00000000
          hintmask 00101000
          369 782 rmoveto
          -96 callgsubr
          hintmask 11010000
          -265 -197 -94 callgsubr
        </CharString>
        <CharString name="Ycircumflex">
          12 0 -30 callsubr
          35 162 hstemhm
          189 238 -187 80 callsubr
          333 782 rmoveto
          -50 hlineto
          -94 -162 rlineto
          26 hlineto
          93 87 93 -87 rlineto
          26 hlineto
          hintmask 11001000
          -217 -35 -94 callgsubr
        </CharString>
        <CharString name="Ydieresis">
          12 0 -30 callsubr
          35 98 hstemhm
          167 98 -25 92 19 98 hintmask 00000000
          hintmask 00110100
          351 -72 callgsubr
          hintmask 11001000
          43 -84 -94 callgsubr
        </CharString>
        <CharString name="Ygrave">
          12 0 -30 callsubr
          35 162 hstemhm
          154 180 -94 80 callsubr
          260 782 rmoveto
          -106 hlineto
          154 -162 rlineto
          26 hlineto
          hintmask 11001000
          -124 -35 -94 callgsubr
        </CharString>
        <CharString name="Z">
          98 callgsubr
          hstem
          51 21 382 21 vstem
          449 hmoveto
          -73 callsubr
        </CharString>
        <CharString name="Zacute">
          98 callgsubr
          35 162 hstem
          51 21 162 180 40 21 vstem
          308 782 rmoveto
          -96 callgsubr
          35 -782 rmoveto
          -73 callsubr
        </CharString>
        <CharString name="Zcaron">
          98 callgsubr
          70 162 hstem
          52 21 61 238 82 21 vstem
          228 655 -90 callgsubr
          315 -817 rmoveto
          -73 callsubr
        </CharString>
        <CharString name="Zdotaccent">
          98 callgsubr
          36 102 hstem
          51 21 124 102 156 21 vstem
          196 672 -100 callgsubr
          253 -672 rmoveto
          -73 callsubr
        </CharString>
        <CharString name="a">
          -57 callsubr
          -16 callsubr
          167 90 70 18 hintmask 00000000
          hintmask 11111011
          112 366 -106 callgsubr
          hintmask 11110111
          -97 callsubr
          hintmask 11111011
          -91 callsubr
          endchar
        </CharString>
        <CharString name="aacute">
          -68 -8 3 callgsubr
          62 180 -75 21 callsubr
          hintmask 0000100100000000
          283 677 rmoveto
          -96 callgsubr
          hintmask 1111010011000000
          -277 -311 -106 callgsubr
          hintmask 1111001011000000
          -97 callsubr
          hintmask 1111010011000000
          -91 callsubr
          endchar
        </CharString>
        <CharString name="abreve">
          -57 callsubr
          75 72 111 callgsubr
          190 90 -84 28 126 18 -59 callgsubr
          hintmask 0000100101000000
          222 525 -92 callgsubr
          hintmask 1111010010100000
          -110 -159 -106 callgsubr
          hintmask 1111001010100000
          -97 callsubr
          hintmask 1111010010100000
          -91 callsubr
          endchar
        </CharString>
        <CharString name="acircumflex">
          -68 -8 3 callgsubr
          -44 238 -27 21 callsubr
          hintmask 0000100100000000
          247 677 rmoveto
          -50 hlineto
          -94 -162 rlineto
          26 hlineto
          93 87 93 -87 rlineto
          26 hlineto
          hintmask 1111010011000000
          -229 -149 -106 callgsubr
          hintmask 1111001011000000
          -97 callsubr
          hintmask 1111010011000000
          -91 callsubr
          endchar
        </CharString>
        <CharString name="acute">
          27 callsubr
          134 662 rmoveto
          -96 callgsubr
          endchar
        </CharString>
        <CharString name="acutebelowcomb">
          -212 162 hstem
          -336 180 vstem
          -262 -50 rmoveto
          -96 callgsubr
          endchar
        </CharString>
        <CharString name="acutecomb">
          53 callsubr
          -267 180 vstem
          -193 662 rmoveto
          -96 callgsubr
          endchar
        </CharString>
        <CharString name="acutemacroncomb">
          570 44 hstem
          -328 570 rmoveto
          200 44 -264 hlineto
          -74 -162 rlineto
          26 hlineto
          endchar
        </CharString>
        <CharString name="adieresis">
          60 callgsubr
          98 -16 callsubr
          -66 98 86 98 -49 21 callsubr
          hintmask 0000100110000000
          265 564 -106 callsubr
          hintmask 1111010001100000
          31 -198 -106 callgsubr
          hintmask 1111001001100000
          -97 callsubr
          hintmask 1111010001100000
          -91 callsubr
          endchar
        </CharString>
        <CharString name="adotbelow">
          -67 -153 102 43 -62 callsubr
          -16 callsubr
          39 102 26 21 callsubr
          hintmask 1000000100000000
          186 -97 callgsubr
          hintmask 0111110011000000
          -74 468 -106 callgsubr
          hintmask 0111101011000000
          -97 callsubr
          hintmask 0111110011000000
          -91 callsubr
          endchar
        </CharString>
        <CharString name="ae">
          157 -10 34 202 21 -6 31 18 76 48 36 -16 callsubr
          151 94 hintmask 00000000
          hintmask 11011101
          298 247 rmoveto
          -103 -27 -163 -19 -89 vvcurveto
          -96 66 -26 84 78 57 31 25 31 vhcurveto
          -37 33 48 -19 63 hhcurveto
          96 42 30 62 38 hvcurveto
          -5 callgsubr
          -50 -40 -29 -16 -49 hhcurveto
          -108 -26 93 99 hvcurveto
          hintmask 10111011
          21 278 vlineto
          110 -50 99 -138 -53 -43 -20 -35 -31 vhcurveto
          34 -26 -42 21 -63 hhcurveto
          -105 -60 -40 -70 -30 17 -20 26 21 24 10 25 31 -19 10 -16 hvcurveto
          39 10 40 9 52 hhcurveto
          66 18 -54 -113 hvcurveto
          hintmask 11011101
          -21 vmoveto
          -10 vlineto
          -64 13 -50 23 -37 vhcurveto
          -22 -34 -60 -19 -41 hhcurveto
          -45 -29 18 68 75 102 21 71 20 hvcurveto
          hintmask 10111001
          97 46 rmoveto
          96 11 38 52 33 hhcurveto
          77 11 -65 -83 7 hvcurveto
          endchar
        </CharString>
        <CharString name="afii00208">
          297 79 callgsubr
          724 44 vlineto
          endchar
        </CharString>
        <CharString name="afii57929">
          -333 455 62 callgsubr
          132 46 vstem
          91 578 rmoveto
          -100 callsubr
          endchar
        </CharString>
        <CharString name="afii61352">
          262 0 21 108 26 60 25 189 26 109 21 hstem
          105 34 288 34 65 58 127 58 vstem
          42 59 callgsubr
          450 vlineto
          313 -491 rlineto
          9 544 16 callgsubr
          -356 vlineto
          -251 397 rlineto
          -134 -21 hlineto
          -104 callgsubr
          -503 vlineto
          -102 callgsubr
          608 194 65 callgsubr
          -66 134 63 callsubr
          -58 -194 rmoveto
          -26 243 26 vlineto
          endchar
        </CharString>
        <CharString name="afii64937">
          -333 460 62 callgsubr
          40 46 vstem
          127 583 6 callgsubr
        </CharString>
        <CharString name="agrave">
          -68 -8 3 callgsubr
          -79 180 66 21 callsubr
          hintmask 0000100100000000
          174 677 rmoveto
          -106 hlineto
          154 -162 rlineto
          26 hlineto
          hintmask 1111010011000000
          -136 -149 -106 callgsubr
          hintmask 1111001011000000
          -97 callsubr
          hintmask 1111010011000000
          -91 callsubr
          endchar
        </CharString>
        <CharString name="alphalatin">
          -11 -10 34 9 23 360 34 hstem
          39 95 231 90 vstem
          377 417 rmoveto
          0 callgsubr
          -33 -93 callsubr
          389 vlineto
          -22 -37 -21 -12 -19 hvcurveto
          -12 -24 rmoveto
          -338 vlineto
          -17 callgsubr
          endchar
        </CharString>
        <CharString name="amacron">
          -57 callsubr
          79 44 -16 callsubr
          -63 264 -34 21 callsubr
          hintmask 0000100100000000
          84 68 callgsubr
          hintmask 1111010011000000
          -236 -207 -106 callgsubr
          hintmask 1111001011000000
          -97 callsubr
          hintmask 1111010011000000
          -91 callsubr
          endchar
        </CharString>
        <CharString name="ampersand">
          54 -10 42 -42 54 280 21 215 35 hstemhm
          20 100 31 82 100 42 hintmask 00000000
          hintmask 00111110
          285 560 rmoveto
          32 16 -45 -46 -46 -32 -35 -44 -31 hvcurveto
          -15 43 -9 38 28 vvcurveto
          58 6 36 46 vhcurveto
          281 -215 rmoveto
          -164 -21 hlineto
          38 16 -5 -11 7 hvcurveto
          -17 -55 -23 -78 -37 -59 -42 54 -44 78 -29 72 rrcurveto
          55 42 49 48 71 vvcurveto
          57 -41 57 -69 -41 -73 -10 -111 -38 12 -60 23 -64 vhcurveto
          -81 -48 -85 -51 -86 vvcurveto
          hintmask 10111110
          -86 58 -51 147 53 44 18 28 35 vhcurveto
          hintmask 01111110
          -29 35 38 -17 40 hhcurveto
          63 24 39 42 16 hvcurveto
          -12 10 rlineto
          -29 -20 -11 -8 -52 hhcurveto
          -20 -25 18 28 -26 hvcurveto
          46 63 28 82 22 70 rrcurveto
          13 4 18 6 41 hhcurveto
          -232 -267 rmoveto
          hintmask 10111110
          -16 -21 -24 -9 -27 hhcurveto
          -90 -52 34 84 48 37 36 46 35 hvcurveto
          32 -78 45 -80 54 -54 rrcurveto
          endchar
        </CharString>
        <CharString name="aogonek">
          -69 -200 34 158 -62 callsubr
          -16 callsubr
          167 90 -56 49 77 18 -59 callgsubr
          hintmask 1111110101000000
          320 58 rmoveto
          -19 -31 -50 -15 -40 hhcurveto
          -91 callsubr
          -208 308 rmoveto
          39 10 40 9 52 hhcurveto
          78 22 -55 -107 hvcurveto
          -101 -29 -181 -18 -93 vvcurveto
          -96 66 -26 84 70 48 22 21 29 vhcurveto
          14 -28 21 -10 24 -2 rrcurveto
          hintmask 1111100011000000
          -18 -19 -23 -32 -45 -77 callsubr
          17 11 20 10 14 vhcurveto
          55 3 19 17 34 vvcurveto
          -18 hlineto
          -14 -17 -10 -17 vhcurveto
          hintmask 1111101101000000
          -17 -19 16 46 hvcurveto
          198 vlineto
          93 -49 75 -131 -105 -60 -40 12 callgsubr
          endchar
        </CharString>
        <CharString name="aring">
          -57 callsubr
          44 43 94 43 -16 callsubr
          -15 43 94 43 2 21 callsubr
          hintmask 0000110011000000
          175 584 -77 callgsubr
          hintmask 1111001000110000
          -20 -218 -106 callgsubr
          hintmask 1111000100110000
          -97 callsubr
          hintmask 1111001000110000
          -91 callsubr
          endchar
        </CharString>
        <CharString name="asciicircum">
          -95 316 224 hstem
          241 540 rmoveto
          -27 hlineto
          -164 -196 34 -28 144 172 144 -172 34 28 rlineto
          endchar
        </CharString>
        <CharString name="asciitilde">
          -6 208 63 6 63 hstem
          60 26 377 26 vstem
          386 208 3 callsubr
        </CharString>
        <CharString name="asterisk">
          -191 358 104 8 87 hstemhm
          77 90 -32 88 -70 52 -13 91 hintmask 00000000
          hintmask 11100100
          128 358 rmoveto
          10 9 4 9 7 hvcurveto
          7 9 6 43 23 vvcurveto
          5 0 4 -1 3 vhcurveto
          -2 4 4 -1 5 hhcurveto
          5 5 1 3 4 hvcurveto
          -1 -2 0 -4 -5 vvcurveto
          hintmask 11001000
          -23 6 -45 7 -9 vhcurveto
          -9 6 9 -4 10 hhcurveto
          hintmask 11000100
          25 28 25 22 6 -2 6 -4 6 hvcurveto
          11 -8 -58 28 -15 hhcurveto
          hintmask 11001000
          5 5 4 6 8 vvcurveto
          2 0 2 -1 2 vhcurveto
          -7 9 49 -10 22 hhcurveto
          21 10 19 17 27 -19 24 -20 -3 -4 -1 -1 -4 hvcurveto
          -13 -4 -46 -48 -3 -12 -4 9 -8 6 -10 1 rrcurveto
          hintmask 11010000
          11 8 31 57 13 vvcurveto
          22 -20 13 -24 -25 -19 -13 -22 -13 31 -57 11 -8 vhcurveto
          -9 -1 -9 -6 -4 -8 -5 14 -43 45 -13 4 rrcurveto
          1 -4 -3 1 -3 hhcurveto
          -21 -19 -25 -27 -17 10 -18 21 21 47 10 7 11 hvcurveto
          hintmask 11001000
          -2 -1 -2 -2 vvcurveto
          -8 3 -6 6 -5 vhcurveto
          -14 -1 -57 -27 -8 -11 rrcurveto
          hintmask 11100100
          -4 -6 -2 -7 -6 vvcurveto
          -22 27 -24 24 vhcurveto
          endchar
        </CharString>
        <CharString name="at">
          75 -10 39 117 36 -23 43 205 30 116 42 hstemhm
          44 42 83 44 128 51 128 42 -59 callgsubr
          hintmask 1011111110000000
          248 159 rmoveto
          33 34 21 33 27 hvcurveto
          -1 -6 0 -5 -5 vvcurveto
          hintmask 1101111110000000
          -40 31 -11 19 119 52 134 66 168 -106 81 -122 -149 -141 -113 -198 -178 152 -116 136 150 68 88 96 42 vhcurveto
          -16 8 rlineto
          -33 -18 -60 -120 -160 hhcurveto
          -105 -147 91 168 174 127 91 125 86 96 -29 -186 -32 -32 -124 -73 -14 -9 5 10 2 0 2 1 2 hvcurveto
          59 223 rlineto
          -53 hlineto
          -14 -53 rlineto
          36 -9 -25 28 -41 hhcurveto
          -66 -75 -88 -90 -52 26 -48 53 hvcurveto
          117 179 rmoveto
          hintmask 1011111110000000
          -70 -52 -66 -49 -36 -15 32 36 69 52 68 49 36 15 -33 -36 vhcurveto
          endchar
        </CharString>
        <CharString name="atilde">
          60 callgsubr
          53 6 53 -16 callsubr
          -74 19 222 90 -49 19 100 18 -59 callgsubr
          hintmask 0000110010100000
          297 515 -104 callsubr
          hintmask 1111001001010000
          -185 -149 -106 callgsubr
          hintmask 1111000101010000
          -97 callsubr
          hintmask 1111001001010000
          -91 callsubr
          endchar
        </CharString>
        <CharString name="b">
          -13 -10 111 callsubr
          43 -20 hstem
          68 90 246 95 vstem
          68 559 rmoveto
          -569 vlineto
          26 47 29 9 13 hvcurveto
          -17 21 38 -21 60 hhcurveto
          130 96 78 154 182 -126 50 -78 -70 -42 -23 -24 -25 hvcurveto
          223 -101 callgsubr
          90 -186 rmoveto
          21 19 37 26 71 hhcurveto
          70 49 -80 -118 -132 -69 -66 -68 -58 -34 20 15 -17 hvcurveto
          endchar
        </CharString>
        <CharString name="backslash">
          -93 438 -10 rmoveto
          -389 622 -29 -18 389 -622 rlineto
          endchar
        </CharString>
        <CharString name="bar">
          -363 76 36 vstem
          76 650 rmoveto
          -680 36 680 vlineto
          endchar
        </CharString>
        <CharString name="beta">
          -45 -171 -21 182 30 324 24 232 30 hstemhm
          68 90 183 80 -35 83 hintmask 00000000
          hintmask 11111100
          68 -192 rmoveto
          90 680 hlineto
          76 58 36 32 55 38 -60 -41 -71 -78 -51 -42 -9 vhcurveto
          -10 -2 -6 -6 -6 vvcurveto
          -5 5 -5 11 vhcurveto
          2 hlineto
          hintmask 11111010
          102 61 34 callgsubr
          70 -49 75 -111 21 hvcurveto
          hintmask 11111100
          71 23 41 52 69 vvcurveto
          85 -56 45 -131 -68 -98 -39 -117 vhcurveto
          endchar
        </CharString>
        <CharString name="braceleft">
          -289 -153 24 338 23 339 23 hstemhm
          88 69 -60 71 hintmask 00000000
          hintmask 11110000
          88 -61 rmoveto
          -45 25 -47 121 vhcurveto
          24 vlineto
          -48 -29 11 48 hvcurveto
          hintmask 11101000
          36 11 126 49 vvcurveto
          31 -12 32 -48 17 vhcurveto
          48 17 12 32 31 vvcurveto
          hintmask 11110000
          49 -11 125 36 vvcurveto
          48 29 12 48 vhcurveto
          23 vlineto
          -121 -25 -47 -45 hvcurveto
          hintmask 11101000
          -49 9 -125 -36 vvcurveto
          -48 -27 -12 -48 vhcurveto
          -23 vlineto
          48 27 -11 -48 hvcurveto
          -36 -9 -126 -49 vvcurveto
          endchar
        </CharString>
        <CharString name="braceright">
          -289 -153 23 339 23 338 24 hstemhm
          94 71 -60 69 hintmask 00000000
          hintmask 11101000
          174 502 rmoveto
          45 -25 47 -121 vhcurveto
          -24 vlineto
          48 29 -11 -48 hvcurveto
          hintmask 11110000
          -36 -11 -126 -49 vvcurveto
          -31 12 -32 48 -17 vhcurveto
          -48 -17 -12 -32 -31 vvcurveto
          hintmask 11101000
          -49 11 -125 -36 vvcurveto
          -48 -29 -12 -48 vhcurveto
          -23 vlineto
          121 25 47 45 hvcurveto
          hintmask 11110000
          49 -9 125 36 vvcurveto
          48 27 12 48 vhcurveto
          23 vlineto
          -48 -27 11 48 hvcurveto
          36 9 126 49 vvcurveto
          endchar
        </CharString>
        <CharString name="bracketleft">
          -263 -156 36 699 36 hstem
          74 80 vstem
          154 579 rmoveto
          116 36 -196 -771 196 36 -116 hlineto
          endchar
        </CharString>
        <CharString name="bracketright">
          -263 -156 36 699 36 hstem
          134 80 vstem
          134 -120 rmoveto
          -116 -36 196 771 -196 -36 116 hlineto
          endchar
        </CharString>
        <CharString name="breve">
          -179 510 72 hstem
          60 57 callgsubr
          vstem
          186 510 -92 callgsubr
          endchar
        </CharString>
        <CharString name="brevecomb">
          510 72 hstem
          -380 57 callgsubr
          vstem
          -254 510 -92 callgsubr
          endchar
        </CharString>
        <CharString name="brokenbar">
          -359 78 36 vstem
          78 650 rmoveto
          -288 36 288 vlineto
          -36 -392 rmoveto
          -288 36 288 vlineto
          endchar
        </CharString>
        <CharString name="bullet">
          -217 186 232 hstem
          45 244 vstem
          45 300 rmoveto
          -62 61 -52 61 75 47 64 56 62 -63 50 -61 -75 -45 -62 -56 vhcurveto
          endchar
        </CharString>
        <CharString name="c">
          -72 -10 38 266 76 50 30 hstem
          39 95 205 88 vstem
          272 420 -83 callsubr
        </CharString>
        <CharString name="cacute">
          -72 -10 38 266 76 50 47 callsubr
          120 180 -95 88 -10 callgsubr
          328 677 rmoveto
          -96 callgsubr
          hintmask 11101010
          -162 -257 -83 callsubr
        </CharString>
        <CharString name="candrabindu">
          501 72 36 98 hstem
          -380 28 50 98 48 28 vstem
          -302 658 rmoveto
          -27 22 -22 27 27 22 22 27 27 -22 22 -27 -27 -22 -22 -27 vhcurveto
          48 -157 -92 callgsubr
          endchar
        </CharString>
        <CharString name="caron">
          -193 53 callsubr
          60 238 vstem
          154 500 -90 callgsubr
          endchar
        </CharString>
        <CharString name="caroncomb">
          53 callsubr
          -372 238 vstem
          -278 500 -90 callgsubr
          endchar
        </CharString>
        <CharString name="ccaron">
          -72 -10 38 266 76 50 47 callsubr
          15 238 -48 88 -10 callgsubr
          243 515 -90 callgsubr
          hintmask 11101010
          123 -257 -83 callsubr
        </CharString>
        <CharString name="ccedilla">
          -72 113 callgsubr
          38 266 76 50 30 hstemhm
          39 95 146 87 -28 88 hintmask 00000000
          hintmask 11111010
          272 420 rmoveto
          92 callgsubr
          hvcurveto
          -43 callsubr
          70 -60 36 -105 -138 -85 -96 -112 -192 112 -55 90 -5 hvcurveto
          -22 -76 rlineto
          hintmask 11111100
          -85 callgsubr
          12 46 89 4 50 30 35 57 rlinecurve
          -39 callsubr
          hvcurveto
          endchar
        </CharString>
        <CharString name="ccircumflex">
          -72 -10 38 266 76 50 47 callsubr
          14 238 -47 88 -10 callgsubr
          292 677 rmoveto
          -50 hlineto
          -94 -162 rlineto
          26 hlineto
          93 87 93 -87 rlineto
          26 hlineto
          hintmask 11101010
          -114 -95 -83 callsubr
        </CharString>
        <CharString name="cdotaccent">
          -72 -10 38 266 76 50 30 66 102 hstem
          39 95 82 102 21 88 vstem
          216 567 -100 callgsubr
          56 -147 -83 callsubr
        </CharString>
        <CharString name="cedilla">
          -247 -199 22 hstem
          157 87 vstem
          124 12 rmoveto
          -28 -98 rlineto
          -85 callgsubr
          18 67 rlineto
          endchar
        </CharString>
        <CharString name="cedillacomb">
          -199 22 hstem
          -237 87 vstem
          -270 12 rmoveto
          -28 -98 rlineto
          -85 callgsubr
          18 67 rlineto
          endchar
        </CharString>
        <CharString name="cent">
          -78 -10 38 266 76 50 30 hstem
          31 95 205 88 vstem
          290 573 rmoveto
          -22 -123 rlineto
          -14 hlineto
          -138 -85 -96 -112 -161 78 -64 79 -20 hvcurveto
          -21 -118 37 -7 21 119 rlineto
          -1 7 8 0 7 hhcurveto
          -19 callsubr
          hvcurveto
          -5 callgsubr
          -42 callsubr
          -16 -16 4 8 -15 hvcurveto
          66 378 34 -5 24 -14 8 -29 rlinecurve
          -43 callsubr
          58 -41 35 -73 10 hvcurveto
          21 119 rlineto
          -126 -502 rmoveto
          -43 40 -31 69 73 vvcurveto
          107 57 66 80 1 vhcurveto
          endchar
        </CharString>
        <CharString name="chi">
          -163 -192 21 590 21 hstem
          357 -192 rmoveto
          95 21 hlineto
          -25 -15 2 5 -10 hvcurveto
          -152 339 128 265 rlineto
          -45 hlineto
          -105 -216 -79 176 rlineto
          27 -12 -21 13 -25 hhcurveto
          -94 -21 hlineto
          25 14 -2 -5 9 hvcurveto
          132 -293 -150 -311 rlineto
          45 hlineto
          127 262 100 -222 rlineto
          -29 13 20 -11 25 hhcurveto
          endchar
        </CharString>
        <CharString name="circumflex">
          -193 53 callsubr
          60 238 vstem
          204 56 callgsubr
        </CharString>
        <CharString name="circumflexcomb">
          53 callsubr
          -373 238 vstem
          -229 56 callgsubr
        </CharString>
        <CharString name="colon">
          -307 -10 124 206 124 hstem
          62 120 vstem
          62 381 -53 callgsubr
          -330 vmoveto
          -65 callgsubr
          endchar
        </CharString>
        <CharString name="comma">
          -321 -129 28 108 93 hstem
          142 46 vstem
          101 -6 7 callgsubr
        </CharString>
        <CharString name="commaabovecomb">
          534 62 callgsubr
          -209 46 vstem
          -250 657 rmoveto
          -100 callsubr
          endchar
        </CharString>
        <CharString name="commabelowcomb">
          -9 callgsubr
          hstem
          -209 46 vstem
          -250 -125 rmoveto
          -100 callsubr
          endchar
        </CharString>
        <CharString name="copyright">
          90 -8 27 97 27 259 27 88 27 hstemhm
          45 27 105 62 150 22 -15 20 154 27 -59 callgsubr
          hintmask 1111110010000000
          -62 callgsubr
          288 134 rmoveto
          hintmask 1111110110000000
          43 14 -22 -30 6 hvcurveto
          20 hlineto
          hintmask 1111111010000000
          -5 74 rlineto
          -22 hlineto
          -7 0 -3 -1 vhcurveto
          -5 -20 15 -30 hhcurveto
          -79 -77 -59 -102 -76 50 -76 98 65 31 37 36 14 hvcurveto
          -21 10 rlineto
          -24 -9 -32 -32 -38 hhcurveto
          -47 -49 43 93 72 39 51 55 hvcurveto
          endchar
        </CharString>
        <CharString name="currency">
          -40 74 45 286 45 hstem
          68 45 286 45 vstem
          113 262 rmoveto
          79 64 64 79 79 64 -64 -79 -79 -64 -64 -79 -79 -64 64 79 vhcurveto
          -6 -115 rmoveto
          -54 -53 32 -32 53 53 rlineto
          -26 32 41 -15 45 hhcurveto
          44 41 16 25 32 hvcurveto
          52 -53 32 32 -53 52 rlineto
          25 32 15 40 44 vvcurveto
          45 -15 41 -26 32 vhcurveto
          54 54 -32 32 -54 -55 rlineto
          24 -32 -40 15 -43 hhcurveto
          -44 -40 -15 -25 -32 hvcurveto
          -55 56 -32 -32 56 -55 rlineto
          -25 -32 -16 -41 -44 vvcurveto
          -43 15 -40 24 -32 vhcurveto
          endchar
        </CharString>
        <CharString name="d">
          -14 -10 78 callsubr
          43 -20 hstem
          39 95 229 90 vstem
          363 430 -71 callsubr
          569 -101 callgsubr
          -160 vmoveto
          -343 vlineto
          -16 -22 -34 -16 -54 hhcurveto
          -70 -49 128 70 130 69 68 68 44 83 callsubr
          endchar
        </CharString>
        <CharString name="dagger">
          -203 454 35 63 47 hstem
          34 52 58 60 58 52 cntrmask 00111000
          174 38 rmoveto
          0 30 48 188 vvcurveto
          122 -12 58 0 58 callgsubr
          96 callgsubr
          -11 10 -10 9 hvcurveto
          64 callsubr
          0 -12 -58 -122 vvcurveto
          -188 30 -48 0 vhcurveto
          endchar
        </CharString>
        <CharString name="daggerdbl">
          -183 37 47 63 35 272 35 63 47 hstemhm
          44 52 52 72 -53 34 71 52 hintmask 00000000
          hintmask 11111011
          154 318 rmoveto
          -38 7 -45 5 -53 vhcurveto
          -82 hlineto
          -24 -16 -14 -16 -14 13 -12 16 14 9 10 11 hvcurveto
          71 -63 hlineto
          hintmask 11111101
          -9 -10 -10 -11 -14 11 -12 26 26 9 12 14 hvcurveto
          hintmask 11111011
          11 -10 10 -9 vhcurveto
          63 71 vlineto
          -11 9 -10 14 16 13 12 14 16 -16 14 -24 vhcurveto
          -82 hlineto
          5 53 7 45 38 vvcurveto
          38 -7 45 -5 53 58 callgsubr
          hintmask 11111101
          96 callgsubr
          hvcurveto
          hintmask 11111011
          -11 10 -10 9 vhcurveto
          64 callsubr
          -5 -53 -7 -45 -38 vvcurveto
          endchar
        </CharString>
        <CharString name="dcaron">
          16 -10 34 9 23 364 28 -28 34 102 74 -66 23 23 20 hstemhm
          39 95 229 90 135 46 -59 callgsubr
          hintmask 0010100001000000
          547 543 rmoveto
          -100 callsubr
          hintmask 1101011110000000
          -184 -113 -71 callsubr
          569 -101 callgsubr
          -160 vmoveto
          -343 vlineto
          -16 -22 -34 -16 -54 hhcurveto
          -70 -49 128 70 130 69 68 68 44 83 callsubr
          endchar
        </CharString>
        <CharString name="dcroat">
          -14 -10 82 callgsubr
          37 34 39 23 23 20 hstemhm
          39 95 116 264 -151 90 -59 callgsubr
          hintmask 1111111010000000
          363 399 rmoveto
          -343 vlineto
          -16 -22 -34 -16 -54 hhcurveto
          -70 -49 128 70 130 69 68 68 44 83 callsubr
          90 92 rmoveto
          hintmask 1111111100000000
          61 34 hlineto
          hintmask 1111111010000000
          -61 105 hlineto
          -45 -69 -43 -39 hhcurveto
          -23 vlineto
          15 23 -3 -2 25 hvcurveto
          -34 vlineto
          hintmask 1111111100000000
          -113 -34 hlineto
          hintmask 1111111010000000
          113 -61 hlineto
          -80 callsubr
          endchar
        </CharString>
        <CharString name="degree">
          -239 403 41 145 41 hstem
          42 41 146 41 vstem
          83 516 rmoveto
          40 33 33 40 40 33 -33 -40 -40 -33 -32 -40 -40 -33 32 40 vhcurveto
          -41 hmoveto
          -62 52 -51 62 62 52 51 62 62 -52 52 -62 -62 -52 -52 -62 vhcurveto
          endchar
        </CharString>
        <CharString name="dieresis">
          -149 500 98 hstem
          60 98 86 98 vstem
          244 549 -106 callsubr
          endchar
        </CharString>
        <CharString name="dieresisbelowcomb">
          -148 98 hstem
          -395 98 86 98 vstem
          -211 -99 -106 callsubr
          endchar
        </CharString>
        <CharString name="dieresiscomb">
          500 98 hstem
          -395 98 86 98 vstem
          -211 549 -106 callsubr
          endchar
        </CharString>
        <CharString name="divide">
          -69 119 118 59 44 59 118 hstem
          184 114 cntrmask 11100000
          184 457 rmoveto
          70 callsubr
          -280 vmoveto
          70 callsubr
          -140 163 rmoveto
          -44 394 44 vlineto
          endchar
        </CharString>
        <CharString name="dollar">
          -96 -9 34 536 34 hstemhm
          49 22 -21 75 85 30 102 82 -75 22 hintmask 00000000
          hintmask 11011010
          240 353 rmoveto
          207 vlineto
          69 -8 33 -44 7 -50 rrcurveto
          22 82 hlineto
          0 -54 45 -77 9 vhcurveto
          26 -30 -25 vlineto
          -88 -3 -72 -74 -78 vvcurveto
          -93 90 -50 70 -41 vhcurveto
          -231 vlineto
          hintmask 11101100
          -65 5 -60 31 -14 78 rrcurveto
          -22 -93 hlineto
          0 66 -47 95 -8 vhcurveto
          -27 30 26 vlineto
          92 1 92 52 105 vvcurveto
          104 -99 53 -85 48 vhcurveto
          -30 18 rmoveto
          hintmask 11011000
          -47 28 -38 28 45 vvcurveto
          33 23 53 62 3 vhcurveto
          30 -322 rmoveto
          hintmask 11001100
          54 -31 48 -31 -57 vvcurveto
          -65 -41 -29 -61 -2 vhcurveto
          endchar
        </CharString>
        <CharString name="dotaccent">
          -333 501 102 hstem
          58 102 vstem
          58 49 callsubr
        </CharString>
        <CharString name="dotaccentcomb">
          501 102 hstem
          -305 102 vstem
          -305 49 callsubr
        </CharString>
        <CharString name="dotbelowcomb">
          -153 102 hstem
          -305 102 vstem
          -305 -102 56 callsubr
        </CharString>
        <CharString name="dotlessi">
          10 callsubr
          43 -20 hstem
          94 90 vstem
          31 hmoveto
          -93 callgsubr
          endchar
        </CharString>
        <CharString name="doubleacutecomb">
          500 162 hstemhm
          -353 84 callgsubr
          hintmask 00000000
          hintmask 10100000
          -119 662 rmoveto
          -96 callgsubr
          hintmask 11000000
          -266 hmoveto
          -96 callgsubr
          endchar
        </CharString>
        <CharString name="doublegravecomb">
          500 162 hstemhm
          -498 84 callgsubr
          hintmask 00000000
          hintmask 11000000
          -392 662 rmoveto
          -106 hlineto
          154 -162 rlineto
          26 hlineto
          hintmask 10100000
          86 162 rmoveto
          -106 hlineto
          154 -162 rlineto
          26 hlineto
          endchar
        </CharString>
        <CharString name="doublelowlinecomb">
          -176 44 46 44 hstem
          -444 -132 52 callsubr
          -364 90 52 callsubr
          endchar
        </CharString>
        <CharString name="doublevertcomb">
          500 104 callgsubr
          664 66 callgsubr
        </CharString>
        <CharString name="e">
          -48 callsubr
          hstem
          39 95 vstem
          134 241 -105 callsubr
        </CharString>
        <CharString name="eacute">
          73 callgsubr
          162 hstem
          39 95 97 180 vstem
          305 677 rmoveto
          -96 callgsubr
          -277 -436 -105 callsubr
        </CharString>
        <CharString name="ebreve">
          -48 callsubr
          75 72 hstemhm
          39 95 -16 57 callgsubr
          hintmask 00000000
          hintmask 00010110
          244 525 -92 callgsubr
          hintmask 11101000
          -110 -284 -105 callsubr
        </CharString>
        <CharString name="ecaron">
          27 callgsubr
          -8 238 -10 callgsubr
          220 515 -90 callgsubr
          hintmask 11101000
          8 -436 -105 callsubr
        </CharString>
        <CharString name="ecedilla">
          -57 -199 22 168 37 -14 callsubr
          hstem
          40 95 144 87 vstem
          136 272 rmoveto
          92 9 53 56 44 hhcurveto
          89 20 -65 -83 7 hvcurveto
          -223 -31 rmoveto
          321 hlineto
          110 -60 99 -150 -134 -72 -96 -112 -190 110 -55 90 -6 vhcurveto
          -22 -77 rlineto
          -85 callgsubr
          12 45 90 4 51 31 35 57 rlinecurve
          -5 callgsubr
          -42 callsubr
          -79 -74 101 112 -2 hvcurveto
          endchar
        </CharString>
        <CharString name="ecircumflex">
          27 callgsubr
          -9 238 -10 callgsubr
          269 677 rmoveto
          -50 hlineto
          -94 -162 rlineto
          26 hlineto
          93 87 93 -87 rlineto
          26 hlineto
          hintmask 11101000
          -229 -274 -105 callsubr
        </CharString>
        <CharString name="edieresis">
          73 callgsubr
          98 hstemhm
          39 95 -31 98 86 98 hintmask 00000000
          hintmask 00010110
          287 564 -106 callsubr
          hintmask 11101000
          31 -323 -105 callsubr
        </CharString>
        <CharString name="edotaccent">
          -48 callsubr
          66 102 hstem
          39 95 59 102 vstem
          193 567 -100 callgsubr
          -59 -326 -105 callsubr
        </CharString>
        <CharString name="edotbelow">
          -59 -153 102 41 -27 callgsubr
          hstem
          39 95 76 102 vstem
          210 -97 callgsubr
          -76 343 -105 callsubr
        </CharString>
        <CharString name="egrave">
          27 callgsubr
          -44 180 -10 callgsubr
          196 677 rmoveto
          -106 hlineto
          154 -162 rlineto
          26 hlineto
          hintmask 11101000
          -136 -274 -105 callsubr
        </CharString>
        <CharString name="eight">
          -72 -10 32 541 32 hstemhm
          49 67 -55 88 192 88 -76 67 hintmask 00000000
          hintmask 11010100
          269 324 rmoveto
          -63 46 -57 42 46 vvcurveto
          68 33 37 77 50 44 -33 -65 -81 -46 -39 -38 -21 vhcurveto
          31 -23 rmoveto
          55 28 65 47 81 vvcurveto
          84 -58 54 -122 -114 -65 -60 -70 -66 51 -52 59 -46 vhcurveto
          hintmask 11101000
          -55 -30 -67 -56 -84 vvcurveto
          -84 68 -57 122 114 76 59 74 73 -63 55 -66 50 vhcurveto
          -98 -24 rmoveto
          69 -51 70 -45 -51 vvcurveto
          -64 -44 -44 -77 -52 -52 43 58 85 49 47 37 22 vhcurveto
          endchar
        </CharString>
        <CharString name="ellipsis">
          109 -10 124 hstem
          50 120 100 120 100 120 cntrmask 01110000
          50 -8 callgsubr
          220 hmoveto
          -65 callgsubr
          220 hmoveto
          -65 callgsubr
          endchar
        </CharString>
        <CharString name="emacron">
          -48 callsubr
          79 44 hstemhm
          39 95 -14 264 -10 callgsubr
          120 68 callgsubr
          hintmask 11101000
          -250 -332 -105 callsubr
        </CharString>
        <CharString name="emdash">
          137 79 callgsubr
          564 44 vlineto
          endchar
        </CharString>
        <CharString name="endash">
          -33 79 callgsubr
          394 44 vlineto
          endchar
        </CharString>
        <CharString name="eng">
          -9 -200 30 170 5 callgsubr
          -373 vlineto
          -76 -20 -61 callsubr
          352 vlineto
          96 -50 46 -54 callsubr
          46 -101 callgsubr
          -338 -59 callsubr
        </CharString>
        <CharString name="eogonek">
          -57 114 callgsubr
          -27 callgsubr
          hstem
          40 95 100 49 vstem
          136 272 rmoveto
          92 9 53 56 44 hhcurveto
          89 20 -65 -83 7 hvcurveto
          -223 -31 rmoveto
          321 hlineto
          110 -60 99 -150 -134 -72 18 callsubr
          vhcurveto
          6 6 0 6 hhcurveto
          -18 -19 -21 -31 49 callgsubr
          17 11 20 10 14 vhcurveto
          73 9 44 29 31 51 -24 12 rcurveline
          -42 callsubr
          -79 -74 101 112 -2 hvcurveto
          endchar
        </CharString>
        <CharString name="eopen">
          -98 -10 38 182 38 172 30 hstemhm
          40 95 -83 95 177 85 hintmask 00000000
          hintmask 11101100
          361 310 rmoveto
          29 19 19 25 54 -59 42 -101 -138 -59 -54 -72 -46 37 -30 48 -18 hvcurveto
          hintmask 11110100
          -60 -20 -37 -37 -59 vvcurveto
          -88 84 -36 125 95 45 30 62 38 vhcurveto
          -5 callgsubr
          -50 -40 -47 -16 -44 hhcurveto
          -72 -65 26 56 82 58 18 81 hvcurveto
          38 vlineto
          hintmask 11101100
          -80 -47 34 46 58 31 34 81 52 18 -17 -21 17 hvcurveto
          -11 -4 -11 -10 -17 vvcurveto
          -25 16 -16 21 vhcurveto
          endchar
        </CharString>
        <CharString name="equal">
          -67 236 44 76 44 hstem
          65 280 rmoveto
          -44 354 44 vlineto
          -354 120 rmoveto
          -44 354 44 vlineto
          endchar
        </CharString>
        <CharString name="eth">
          -24 -10 30 399 31 180 -20 hstem
          39 96 255 96 vstem
          267 -10 rmoveto
          165 54 108 118 167 -100 109 -89 64 hvcurveto
          73 43 -17 29 -88 -51 rlineto
          -58 36 -46 17 0 vvcurveto
          -11 -18 rlineto
          0 35 -18 44 -38 vhcurveto
          -75 -43 17 -29 84 48 24 -24 25 -29 22 -35 rlinecurve
          4 -20 -22 2 -24 hhcurveto
          -166 -55 -104 -118 -140 75 -98 153 hvcurveto
          -132 258 rmoveto
          89 35 82 73 100 47 -67 -159 -100 -37 -73 -73 -85 -60 68 160 vhcurveto
          endchar
        </CharString>
        <CharString name="eturned">
          -34 callsubr
        </CharString>
        <CharString name="exclam">
          -316 -10 124 516 -20 hstemhm
          58 120 -110 98 hintmask 00000000
          hintmask 11100000
          58 -16 callgsubr
        </CharString>
        <CharString name="exclamdown">
          -318 406 124 hstemhm
          56 120 -108 98 hintmask 00000000
          hintmask 11000000
          176 55 callgsubr
          -59 -135 rmoveto
          -15 -6 -52 -16 -2 hvcurveto
          hintmask 10100000
          -2 -13 -24 -262 -56 vvcurveto
          -31 22 -14 27 27 22 14 31 56 -24 261 -2 14 vhcurveto
          16 -2 -6 52 -15 hhcurveto
          endchar
        </CharString>
        <CharString name="f">
          -280 59 callsubr
          vstem
          332 571 rmoveto
          -79 callgsubr
          endchar
        </CharString>
        <CharString name="five">
          -90 -10 30 328 39 128 70 hstem
          338 83 vstem
          121 387 rmoveto
          18 128 rlineto
          230 hlineto
          24 70 rlineto
          -279 hlineto
          -33 -237 rlineto
          202 55 -78 -94 -56 -23 -100 -94 hvcurveto
          -148 28 106 -38 hhcurveto
          -28 -8 -14 -40 -18 64 -64 136 156 38 110 96 94 -66 97 -234 hvcurveto
          endchar
        </CharString>
        <CharString name="florin">
          -296 -156 30 536 30 160 30 hstem
          81 90 vstem
          233 440 rmoveto
          -62 48 hlineto
          76 20 36 24 vhcurveto
          48 -32 -66 52 hhcurveto
          23 18 14 23 29 callgsubr
          hvcurveto
          -34 -50 -30 50 -424 vlineto
          -76 -20 -61 callsubr
          410 62 vlineto
          endchar
        </CharString>
        <CharString name="four">
          -103 0 21 155 30 379 -20 hstem
          245 90 vstem
          335 585 rmoveto
          -52 hlineto
          -275 -409 rlineto
          237 -135 hlineto
          -13 callsubr
          216 -92 callsubr
          135 81 30 -81 vlineto
          -90 hmoveto
          -182 hlineto
          182 269 rlineto
          endchar
        </CharString>
        <CharString name="g">
          -31 -6 callgsubr
          91 callsubr
          204 90 hintmask 00000000
          hintmask 11110100
          452 450 -85 callsubr
          hintmask 11101100
          -76 callsubr
          hintmask 11110100
          -53 callsubr
        </CharString>
        <CharString name="gbreve">
          -31 -6 callgsubr
          75 72 91 callsubr
          -14 28 190 90 -84 28 -59 callgsubr
          hintmask 0001001010000000
          270 525 -92 callgsubr
          hintmask 1110100100000000
          182 -75 -85 callsubr
          hintmask 1110010100000000
          -76 callsubr
          hintmask 1110100100000000
          -53 callsubr
        </CharString>
        <CharString name="gcaron">
          -31 -6 callgsubr
          22 callgsubr
          -64 88 -6 238 -28 90 hintmask 00000000
          hintmask 00010010
          246 515 -90 callgsubr
          hintmask 11101001
          300 -227 -76 callgsubr
        </CharString>
        <CharString name="gcircumflex">
          -31 -6 callgsubr
          22 callgsubr
          -64 88 -7 238 -27 90 hintmask 00000000
          hintmask 00010010
          295 677 rmoveto
          -50 hlineto
          -94 -162 rlineto
          26 hlineto
          93 87 93 -87 rlineto
          26 hlineto
          hintmask 11101001
          63 -65 -76 callgsubr
        </CharString>
        <CharString name="gcommaaccent">
          -31 -6 callgsubr
          66 74 108 28 91 callsubr
          20 46 138 90 -59 callgsubr
          hintmask 0001100100000000
          265 603 rmoveto
          -67 callgsubr
          hintmask 1110010010000000
          187 -153 -85 callsubr
          hintmask 1110001010000000
          -76 callsubr
          hintmask 1110010010000000
          -53 callsubr
        </CharString>
        <CharString name="gdotaccent">
          -31 -6 callgsubr
          66 102 91 callsubr
          61 102 41 90 hintmask 00000000
          hintmask 00010010
          219 567 -100 callgsubr
          hintmask 11101001
          233 -117 -76 callgsubr
        </CharString>
        <CharString name="germandbls">
          -37 -10 30 -20 21 323 24 232 30 hstemhm
          84 90 143 80 5 83 hintmask 00000000
          hintmask 10111110
          237 368 rmoveto
          -10 -3 -6 -5 -6 vvcurveto
          -5 5 -5 11 vhcurveto
          2 hlineto
          86 77 34 callgsubr
          73 -86 79 -99 17 hvcurveto
          56 27 41 58 56 vvcurveto
          78 -36 52 -131 -68 -78 -39 -117 vhcurveto
          -433 vlineto
          hintmask 01111110
          -13 callsubr
          153 488 vlineto
          76 38 36 32 55 18 -73 -28 -52 -45 -66 -35 -13 vhcurveto
          endchar
        </CharString>
        <CharString name="grave">
          27 callsubr
          166 662 rmoveto
          -106 hlineto
          154 -162 rlineto
          26 hlineto
          endchar
        </CharString>
        <CharString name="gravebelowcomb">
          -212 162 hstem
          -364 180 vstem
          -258 -50 rmoveto
          -106 hlineto
          154 -162 rlineto
          26 hlineto
          endchar
        </CharString>
        <CharString name="gravecomb">
          53 callsubr
          -408 180 vstem
          -302 662 rmoveto
          -106 hlineto
          154 -162 rlineto
          26 hlineto
          endchar
        </CharString>
        <CharString name="gravemacroncomb">
          514 44 hstem
          -350 514 rmoveto
          222 44 -216 hlineto
          -54 118 rlineto
          -106 hlineto
          endchar
        </CharString>
        <CharString name="greater">
          -86 435 296 rmoveto
          44 vlineto
          -368 172 rlineto
          -40 vlineto
          330 -154 -330 -154 rlineto
          -40 vlineto
          endchar
        </CharString>
        <CharString name="guillemotleft">
          -114 180 238 hstemhm
          39 175 -15 175 hintmask 00000000
          hintmask 11000000
          52 324 -4 callgsubr
          hintmask 10100000
          -2 -94 -4 callgsubr
          endchar
        </CharString>
        <CharString name="guillemotright">
          -114 180 238 hstemhm
          63 175 -15 175 hintmask 00000000
          hintmask 11000000
          225 274 -4 callsubr
          hintmask 10100000
          322 94 -4 callsubr
          endchar
        </CharString>
        <CharString name="guilsinglleft">
          -274 180 238 hstem
          39 175 vstem
          52 324 -4 callgsubr
          endchar
        </CharString>
        <CharString name="guilsinglright">
          -274 180 238 hstem
          63 175 vstem
          225 274 -4 callsubr
          endchar
        </CharString>
        <CharString name="h">
          -1 0 21 395 34 114 23 43 -20 hstem
          84 90 205 90 vstem
          21 hmoveto
          -84 callgsubr
        </CharString>
        <CharString name="hbar">
          -1 0 21 395 34 49 34 31 23 23 20 hstemhm
          24 264 -204 90 205 90 hintmask 00000000
          hintmask 11111011
          21 hmoveto
          -80 callgsubr
          95 vlineto
          hintmask 11111101
          114 34 hlineto
          hintmask 11111011
          -114 97 hlineto
          -45 -69 -43 -39 hhcurveto
          -23 vlineto
          15 23 -3 -2 25 hvcurveto
          -26 vlineto
          hintmask 11111101
          -60 -34 hlineto
          hintmask 11111011
          60 -458 hlineto
          -102 callgsubr
          endchar
        </CharString>
        <CharString name="hcircumflex">
          -1 0 78 callgsubr
          25 162 hstemhm
          12 238 -166 90 205 90 hintmask 00000000
          hintmask 00001100
          156 817 rmoveto
          -50 hlineto
          -94 -162 rlineto
          26 hlineto
          93 87 93 -87 rlineto
          26 hlineto
          hintmask 11110011
          -229 -655 rmoveto
          -84 callgsubr
        </CharString>
        <CharString name="hookabovecomb">
          656 14 hstem
          -264 20 36 54 vstem
          -154 612 -99 callgsubr
          endchar
        </CharString>
        <CharString name="hungarumlaut">
          -91 500 162 hstemhm
          60 84 callgsubr
          hintmask 00000000
          hintmask 10100000
          294 662 rmoveto
          -96 callgsubr
          hintmask 11000000
          -266 hmoveto
          -96 callgsubr
          endchar
        </CharString>
        <CharString name="hyphen">
          50 callsubr
        </CharString>
        <CharString name="i">
          -283 0 21 363 81 callsubr
          81 108 -95 90 hintmask 00000000
          hintmask 11110100
          31 hmoveto
          -93 callgsubr
          105 493 rmoveto
          hintmask 11111000
          -57 callgsubr
          endchar
        </CharString>
        <CharString name="iacute">
          -20 callsubr
          65 162 hstemhm
          94 90 -56 180 -10 callgsubr
          202 677 rmoveto
          -96 callgsubr
          hintmask 11101000
          -277 -677 rmoveto
          -93 callgsubr
          endchar
        </CharString>
        <CharString name="ibreve">
          -20 callsubr
          75 72 hstem
          15 28 51 90 55 28 vstem
          141 525 -92 callgsubr
          -110 -525 rmoveto
          -93 callgsubr
          endchar
        </CharString>
        <CharString name="icircumflex">
          -20 callsubr
          65 162 hstemhm
          22 238 -166 90 hintmask 00000000
          hintmask 00011000
          166 677 rmoveto
          -50 hlineto
          -94 -162 rlineto
          26 hlineto
          93 87 93 -87 rlineto
          26 hlineto
          hintmask 11100100
          -229 -515 rmoveto
          -93 callgsubr
          endchar
        </CharString>
        <CharString name="idieresis">
          -20 callsubr
          65 98 hstemhm
          0 98 -4 90 0 98 hintmask 00000000
          hintmask 00011010
          184 564 -106 callsubr
          hintmask 11100100
          31 -564 rmoveto
          -93 callgsubr
          endchar
        </CharString>
        <CharString name="idotbelow">
          -283 38 callgsubr
          42 callgsubr
          81 108 -106 102 -91 90 hintmask 00000000
          hintmask 10000010
          83 -97 callgsubr
          hintmask 01111001
          -52 102 rmoveto
          -93 callgsubr
          105 493 rmoveto
          hintmask 01111100
          -57 callgsubr
          endchar
        </CharString>
        <CharString name="igrave">
          -20 callsubr
          65 162 hstemhm
          -13 180 -73 90 hintmask 00000000
          hintmask 00011000
          93 677 rmoveto
          -106 hlineto
          154 -162 rlineto
          26 hlineto
          hintmask 11100100
          -136 -515 rmoveto
          -93 callgsubr
          endchar
        </CharString>
        <CharString name="ij">
          -42 -200 30 170 42 callgsubr
          81 108 -95 90 -7 72 89 108 -95 90 -59 callgsubr
          hintmask 1011100110000000
          393 514 rmoveto
          -57 callgsubr
          hintmask 1011100101000000
          -42 -135 rmoveto
          -437 vlineto
          -63 callgsubr
          494 -101 callgsubr
          hintmask 0111101000000000
          -320 -379 rmoveto
          -93 callgsubr
          105 493 rmoveto
          hintmask 0111110000000000
          -57 callgsubr
          endchar
        </CharString>
        <CharString name="imacron">
          -20 callsubr
          79 44 hstemhm
          3 264 -173 90 hintmask 00000000
          hintmask 00011000
          3 68 callgsubr
          hintmask 11100100
          -236 -573 rmoveto
          -93 callgsubr
          endchar
        </CharString>
        <CharString name="invertedbrevecomb">
          560 72 hstem
          -382 57 callgsubr
          vstem
          -256 632 32 callsubr
        </CharString>
        <CharString name="iogonek">
          -283 -200 34 166 42 callgsubr
          81 108 -95 90 -72 49 hintmask 00000000
          hintmask 11111100
          136 514 rmoveto
          -57 callgsubr
          -105 -514 rmoveto
          129 hlineto
          hintmask 11111001
          -18 -17 -30 -35 -51 -77 callsubr
          21 16 24 11 14 vhcurveto
          59 21 hlineto
          hintmask 11111010
          -99 callsubr
          409 -101 callgsubr
          -338 -59 callsubr
        </CharString>
        <CharString name="iotalatin">
          -283 -8 30 362 23 43 -20 hstem
          83 90 72 18 vstem
          173 84 rmoveto
          366 -101 callgsubr
          -267 50 callgsubr
          endchar
        </CharString>
        <CharString name="istroke">
          -233 0 21 222 34 107 81 callsubr
          108 108 -95 90 hintmask 00000000
          hintmask 11111100
          163 514 rmoveto
          -57 callgsubr
          -105 -514 rmoveto
          216 21 hlineto
          hintmask 11111010
          -99 callsubr
          202 81 34 -81 173 -101 callgsubr
          -102 -93 -34 93 -202 -59 callsubr
        </CharString>
        <CharString name="itilde">
          -20 callsubr
          65 101 callgsubr
          -8 19 83 90 90 19 vstem
          216 515 -104 callsubr
          -185 -515 rmoveto
          -93 callgsubr
          endchar
        </CharString>
        <CharString name="j">
          -308 -200 30 554 81 callsubr
          -89 72 89 108 -95 90 hintmask 00000000
          hintmask 11111100
          127 514 rmoveto
          -57 callgsubr
          hintmask 11111010
          -42 -135 rmoveto
          -437 vlineto
          -63 callgsubr
          494 -101 callgsubr
          endchar
        </CharString>
        <CharString name="jcircumflex">
          -308 -200 30 554 23 23 20 65 162 hstemhm
          -89 72 25 238 -161 90 -10 callgsubr
          152 677 rmoveto
          -50 hlineto
          -94 -162 rlineto
          26 hlineto
          93 87 93 -87 rlineto
          26 hlineto
          hintmask 11101010
          -161 -136 rmoveto
          -437 vlineto
          -63 callgsubr
          494 -101 callgsubr
          endchar
        </CharString>
        <CharString name="k">
          -50 62 callsubr
          124 23 43 -20 hstem
          84 90 vstem
          21 hmoveto
          -87 callsubr
          289 43 callsubr
          -38 -15 5 14 -10 hvcurveto
          -172 239 142 127 rlineto
          7 9 14 -39 callgsubr
        </CharString>
        <CharString name="kcommaaccent">
          -48 19 callsubr
          398 21 124 23 23 20 hstem
          84 90 141 46 vstem
          274 -125 rmoveto
          -100 callsubr
          -253 125 -44 callsubr
        </CharString>
        <CharString name="l">
          -293 0 21 543 23 43 -20 hstem
          84 90 vstem
          21 hmoveto
          -87 callsubr
          endchar
        </CharString>
        <CharString name="lacute">
          -293 0 21 543 23 23 20 25 162 hstemhm
          84 90 -56 180 -10 callgsubr
          192 817 rmoveto
          -96 callgsubr
          hintmask 11101000
          -277 -817 rmoveto
          -87 callsubr
          endchar
        </CharString>
        <CharString name="lcaron">
          -264 0 21 399 28 108 74 -66 23 23 20 hstemhm
          84 90 137 46 hintmask 00000000
          hintmask 01100010
          270 543 rmoveto
          -100 callsubr
          hintmask 10011100
          -249 -543 rmoveto
          -87 callsubr
          endchar
        </CharString>
        <CharString name="lcommaaccent">
          -293 19 callsubr
          543 23 23 20 hstem
          84 90 1 46 vstem
          134 -125 rmoveto
          -100 callsubr
          -113 125 rmoveto
          -87 callsubr
          endchar
        </CharString>
        <CharString name="ldot">
          -267 0 21 236 102 205 23 23 20 hstem
          84 90 47 102 vstem
          221 308 -100 callgsubr
          -200 -308 rmoveto
          -87 callsubr
          endchar
        </CharString>
        <CharString name="lefthalfringcomb">
          514 107 callgsubr
          659 35 callgsubr
        </CharString>
        <CharString name="less">
          -86 30 340 rmoveto
          -44 vlineto
          368 -172 rlineto
          40 vlineto
          -330 154 330 154 rlineto
          40 vlineto
          endchar
        </CharString>
        <CharString name="logicalnot">
          -127 296 44 hstem
          315 42 vstem
          315 296 rmoveto
          -88 42 132 -292 -44 vlineto
          endchar
        </CharString>
        <CharString name="longs">
          -293 0 21 579 30 hstem
          84 90 102 72 vstem
          21 hmoveto
          216 21 hlineto
          -99 callsubr
          447 vlineto
          76 30 36 24 24 24 -10 -24 vhcurveto
          76 callsubr
          -45 30 -85 -68 -66 -39 -117 vhcurveto
          80 callgsubr
          endchar
        </CharString>
        <CharString name="longsoliduscomb">
          60 320 hstem
          -474 88 rmoveto
          20 -28 416 292 -20 28 rlineto
          endchar
        </CharString>
        <CharString name="longstrokecomb">
          203 34 hstem
          -515 237 rmoveto
          -34 508 34 vlineto
          endchar
        </CharString>
        <CharString name="lowlinecomb">
          -136 44 hstem
          -444 -92 52 callsubr
          endchar
        </CharString>
        <CharString name="lslash">
          -292 0 21 222 196 125 23 23 20 hstemhm
          18 224 -157 90 hintmask 00000000
          hintmask 11110100
          22 hmoveto
          216 21 hlineto
          -99 callsubr
          316 vlineto
          hintmask 11111000
          67 56 -22 26 rlineto
          hintmask 11110100
          -45 -38 rlineto
          229 -101 callgsubr
          -234 vlineto
          hintmask 11111000
          -67 -56 22 -26 rlineto
          hintmask 11110100
          45 38 rlineto
          -240 -59 callsubr
        </CharString>
        <CharString name="m">
          272 0 19 callgsubr
          189 90 189 90 cntrmask 00011100
          31 hmoveto
          -86 callsubr
        </CharString>
        <CharString name="macron">
          -167 514 44 hstem
          60 264 vstem
          60 558 42 callsubr
        </CharString>
        <CharString name="macronacutecomb">
          514 44 hstem
          -121 676 rmoveto
          -54 -118 rlineto
          -217 -44 223 hlineto
          154 -45 callgsubr
          endchar
        </CharString>
        <CharString name="macronbelowcomb">
          -136 44 hstem
          -392 264 vstem
          -392 -92 42 callsubr
        </CharString>
        <CharString name="macroncomb">
          514 44 hstem
          -392 264 vstem
          -392 558 42 callsubr
        </CharString>
        <CharString name="macrongravecomb">
          570 44 hstem
          -192 570 rmoveto
          112 -118 rlineto
          26 hlineto
          -74 -45 callgsubr
          -264 -44 hlineto
          endchar
        </CharString>
        <CharString name="multiply">
          -131 159 318 hstem
          51 318 vstem
          241 318 rmoveto
          128 128 -31 31 -128 -128 -128 128 -31 -31 128 -128 -128 -128 31 -31 128 128 128 -128 31 31 rlineto
          endchar
        </CharString>
        <CharString name="n">
          8 0 21 363 23 9 34 hstem
          94 90 205 90 vstem
          31 hmoveto
          -98 callgsubr
          endchar
        </CharString>
        <CharString name="nacute">
          8 0 -25 callsubr
          66 162 hstemhm
          94 90 91 180 -66 90 -10 callgsubr
          349 678 rmoveto
          -96 callgsubr
          hintmask 11101010
          -424 -678 rmoveto
          -98 callgsubr
          endchar
        </CharString>
        <CharString name="napostrophe">
          8 0 -25 callsubr
          5 28 108 74 hstemhm
          68 46 -20 90 205 90 hintmask 00000000
          hintmask 11100011
          31 hmoveto
          -98 callgsubr
          hintmask 00011100
          -4 557 rmoveto
          -100 callsubr
          endchar
        </CharString>
        <CharString name="ncaron">
          8 0 -25 callsubr
          66 162 hstemhm
          94 90 -14 238 -19 90 -10 callgsubr
          264 516 -90 callgsubr
          hintmask 11101010
          -139 -678 rmoveto
          -98 callgsubr
          endchar
        </CharString>
        <CharString name="ncommaaccent">
          8 -248 28 108 74 38 19 callgsubr
          145 46 14 90 vstem
          288 -125 rmoveto
          -100 callsubr
          -257 125 rmoveto
          -98 callgsubr
          endchar
        </CharString>
        <CharString name="nine">
          -88 -18 18 215 34 314 32 hstem
          33 90 204 90 vstem
          221 249 rmoveto
          -78 -20 80 60 102 39 72 57 56 52 -54 -148 -32 -2 -29 -4 -28 hvcurveto
          -14 -21 -30 -9 -49 hhcurveto
          95 -10 rmoveto
          -26 -133 -70 -81 -97 -25 12 -18 rcurveline
          104 12 178 131 236 vvcurveto
          132 -66 102 -132 -119 -67 -76 -122 -106 36 -76 154 39 30 10 14 24 vhcurveto
          endchar
        </CharString>
        <CharString name="ntilde">
          8 0 -25 callsubr
          66 53 6 53 hstemhm
          94 90 -45 19 231 90 -58 19 -59 callgsubr
          hintmask 0001101010000000
          363 516 -104 callsubr
          hintmask 1110010100000000
          -332 -516 rmoveto
          -98 callgsubr
          endchar
        </CharString>
        <CharString name="numbersign">
          -65 21 -21 196 34 126 34 195 -20 hstem
          438 230 rmoveto
          -110 hlineto
          18 126 rlineto
          107 34 -102 109 callsubr
          -125 109 callsubr
          -108 -34 103 hlineto
          -18 -126 rlineto
          -100 -34 95 101 callsubr
          125 101 callsubr
          115 hlineto
          -270 34 rmoveto
          18 126 rlineto
          125 hlineto
          -18 -126 rlineto
          endchar
        </CharString>
        <CharString name="o">
          -37 callgsubr
          hstem
          39 96 275 96 vstem
          135 248 -103 callgsubr
        </CharString>
        <CharString name="oacute">
          -37 callgsubr
          65 113 callsubr
          126 180 -31 96 hintmask 00000000
          hintmask 00101000
          335 677 rmoveto
          -96 callgsubr
          hintmask 11010100
          -306 -429 -103 callgsubr
        </CharString>
        <CharString name="obar">
          -6 -10 30 183 34 182 31 hstem
          39 96 275 96 vstem
          277 -10 rmoveto
          165 64 108 118 140 -74 94 -162 -166 -65 -104 -118 -140 85 -98 153 hvcurveto
          133 213 rmoveto
          -10 vlineto
          -100 -47 -73 -73 -77 -64 55 128 -12 vhcurveto
          271 34 rmoveto
          -273 11 hlineto
          89 45 82 73 90 55 -55 -127 10 vhcurveto
          endchar
        </CharString>
        <CharString name="obreve">
          -37 callgsubr
          75 72 hstem
          39 96 13 57 callgsubr
          10 96 vstem
          274 525 -92 callgsubr
          -139 -277 -103 callgsubr
        </CharString>
        <CharString name="ocircumflex">
          -37 callgsubr
          65 162 hstem
          39 96 20 238 17 96 vstem
          299 677 rmoveto
          -50 hlineto
          -94 -162 rlineto
          26 hlineto
          93 87 93 -87 rlineto
          26 hlineto
          -258 -267 -103 callgsubr
        </CharString>
        <CharString name="odieresis">
          -37 callgsubr
          65 98 hstemhm
          39 96 -2 98 86 98 -5 96 hintmask 00000000
          hintmask 00101100
          317 564 -106 callsubr
          hintmask 11010010
          2 -316 -103 callgsubr
        </CharString>
        <CharString name="odotbelow">
          -6 -153 102 41 30 399 31 hstem
          39 96 94 102 79 96 vstem
          229 -97 callgsubr
          -94 350 -103 callgsubr
        </CharString>
        <CharString name="oe">
          313 -10 30 -30 38 213 31 147 31 hstemhm
          39 96 275 96 hintmask 00000000
          hintmask 10111100
          277 -10 rmoveto
          88 59 31 46 36 hvcurveto
          hintmask 01111100
          -59 45 67 -18 55 hhcurveto
          -19 callsubr
          hvcurveto
          -5 callgsubr
          -42 callsubr
          -79 -74 101 112 -2 hvcurveto
          321 hlineto
          110 -60 99 -150 -73 -54 -28 -44 -35 vhcurveto
          46 -39 -60 26 -86 hhcurveto
          -166 -65 -104 -118 -140 85 -98 153 hvcurveto
          -142 258 rmoveto
          89 45 82 73 100 57 -67 -159 vhcurveto
          hintmask 10111100
          -100 -47 -73 -73 -85 -70 68 160 vhcurveto
          372 24 rmoveto
          92 9 53 56 44 hhcurveto
          89 20 -65 -83 7 hvcurveto
          endchar
        </CharString>
        <CharString name="ogonek">
          -292 -200 34 hstem
          40 49 vstem
          102 11 rmoveto
          0 -62 -40 -74 -77 callsubr
          31 36 39 0 vhcurveto
          endchar
        </CharString>
        <CharString name="ogonekcomb">
          -200 34 hstem
          -318 49 vstem
          -256 11 rmoveto
          0 -62 -40 -74 -77 callsubr
          31 36 39 0 vhcurveto
          endchar
        </CharString>
        <CharString name="ograve">
          -37 callgsubr
          65 113 callsubr
          -15 180 110 96 hintmask 00000000
          hintmask 00101000
          226 677 rmoveto
          -106 hlineto
          154 -162 rlineto
          26 hlineto
          hintmask 11010100
          -165 -267 -103 callgsubr
        </CharString>
        <CharString name="ohorn">
          47 callgsubr
          hstemhm
          39 96 275 96 14 48 hintmask 00000000
          hintmask 11011100
          277 -10 -81 callsubr
          hintmask 10111100
          -78 callgsubr
        </CharString>
        <CharString name="ohungarumlaut">
          -37 callgsubr
          65 113 callsubr
          40 84 callgsubr
          -105 96 hintmask 00000000
          hintmask 00100100
          409 677 rmoveto
          -96 callgsubr
          hintmask 00101000
          -266 hmoveto
          -96 callgsubr
          hintmask 11010010
          -220 -429 -103 callgsubr
        </CharString>
        <CharString name="omacron">
          -37 callgsubr
          79 44 hstem
          39 96 5 264 6 96 vstem
          140 68 callgsubr
          -269 -325 -103 callgsubr
        </CharString>
        <CharString name="one">
          -185 0 21 564 -20 hstem
          150 92 vstem
          242 585 rmoveto
          -27 hlineto
          -178 -197 7 -17 35 26 38 27 33 20 rlinecurve
          -383 vlineto
          -32 -81 -8 -42 vhcurveto
          -21 338 21 vlineto
          -42 -81 8 32 hvcurveto
          endchar
        </CharString>
        <CharString name="onehalf">
          127 0 56 224 23 27 50 hstem
          84 71 400 75 vstem
          82 28 callsubr
          118 -556 -55 callsubr
          -553 452 -56 callsubr
        </CharString>
        <CharString name="onequarter">
          99 0 23 82 29 146 23 hstem
          82 71 343 70 vstem
          104 28 callsubr
          73 -237 -58 callgsubr
          -462 224 -56 callsubr
        </CharString>
        <CharString name="oopen">
          -64 -10 30 79 76 237 38 hstem
          33 88 232 95 vstem
          215 20 rmoveto
          -62 -57 40 39 -10 hvcurveto
          16 19 10 31 -47 callsubr
          -70 66 -65 126 138 85 94 151 156 -110 59 -92 -104 -54 -30 -62 -38 hvcurveto
          24 -12 rlineto
          50 40 40 16 58 hhcurveto
          80 61 -85 -96 -138 -57 -73 -81 hvcurveto
          endchar
        </CharString>
        <CharString name="ordfeminine">
          -188 129 26 60 27 91 22 72 28 hstemhm
          64 56 -42 54 73 55 25 19 hintmask 00000000
          hintmask 11111011
          64 155 rmoveto
          -26 240 26 vlineto
          -188 257 rmoveto
          10 6 13 5 25 hhcurveto
          33 11 -18 -54 1 hvcurveto
          -45 -12 -96 -10 -52 vvcurveto
          -50 35 -16 45 31 23 8 11 18 vhcurveto
          -12 8 13 -6 16 hhcurveto
          37 14 9 28 hvcurveto
          -19 hlineto
          -7 0 -5 -12 -4 -9 2 24 vhcurveto
          99 vlineto
          47 -25 42 -70 vhcurveto
          hintmask 11110111
          -51 -36 -19 -41 -14 8 -16 18 9 19 3 19 11 -5 11 -11 3 hvcurveto
          91 -156 rmoveto
          -7 -13 -23 -7 -19 hhcurveto
          hintmask 11111011
          -19 -13 5 33 32 45 9 40 12 hvcurveto
          -52 vlineto
          -7 0 -7 2 -11 vhcurveto
          endchar
        </CharString>
        <CharString name="ordmasculine">
          -184 129 26 60 25 189 26 hstem
          62 58 127 58 vstem
          62 155 rmoveto
          -26 243 26 vlineto
          -185 194 63 callsubr
          66 -134 65 callgsubr
          endchar
        </CharString>
        <CharString name="oslash">
          -37 callgsubr
          hstem
          39 96 275 96 vstem
          360 377 33 callsubr
          -30 callgsubr
        </CharString>
        <CharString name="oslashacute">
          -37 callgsubr
          65 113 callsubr
          126 180 -31 96 hintmask 00000000
          hintmask 11111000
          335 677 rmoveto
          -96 callgsubr
          -81 -300 33 callsubr
          hintmask 11110100
          -30 callgsubr
        </CharString>
        <CharString name="otilde">
          -37 callgsubr
          65 53 6 53 hstemhm
          39 96 -10 74 callgsubr
          -16 96 hintmask 00000000
          hintmask 00110110
          349 515 -104 callsubr
          hintmask 11001001
          -214 -267 -103 callgsubr
        </CharString>
        <CharString name="overlinecomb">
          514 44 hstem
          -444 558 52 callsubr
          endchar
        </CharString>
        <CharString name="p">
          -13 -192 21 161 34 360 99 callsubr
          229 95 vstem
          22 4 callsubr
          33 -101 callgsubr
          -530 vlineto
          -102 callgsubr
          153 215 rmoveto
          340 vlineto
          41 callgsubr
        </CharString>
        <CharString name="paragraph">
          -19 0 21 530 34 -21 21 hstemhm
          30 252 -92 92 51 92 hintmask 00000000
          hintmask 11001100
          127 hmoveto
          155 551 51 -551 155 21 hlineto
          -99 callsubr
          503 vlineto
          hintmask 10110100
          14 6 15 6 42 hhcurveto
          21 -240 vlineto
          -164 -54 -92 -67 hvcurveto
          hintmask 11001100
          -86 58 -62 102 -10 vhcurveto
          -227 -59 callsubr
        </CharString>
        <CharString name="parenleft">
          -308 40 84 vstem
          40 315 rmoveto
          -170 95 -133 41 -51 vhcurveto
          -6 5 6 -5 5 hhcurveto
          4 5 4 7 3 -1 3 -1 3 hvcurveto
          -28 66 -47 86 193 vvcurveto
          193 46 86 29 66 vhcurveto
          1 3 1 3 3 vvcurveto
          7 -5 4 -4 -5 -7 -6 -5 -4 vhcurveto
          -41 -51 -95 -133 -170 vvcurveto
          endchar
        </CharString>
        <CharString name="parenright">
          -308 119 84 vstem
          203 315 rmoveto
          170 -95 133 -41 51 vhcurveto
          6 -5 -6 5 -5 hhcurveto
          -4 -5 -4 -7 -3 1 -3 1 -3 hvcurveto
          28 -66 47 -86 -193 vvcurveto
          -193 -46 -86 -29 -66 vhcurveto
          -1 -3 -1 -3 -3 vvcurveto
          -7 5 -4 4 5 7 6 5 4 vhcurveto
          41 51 95 133 170 vvcurveto
          endchar
        </CharString>
        <CharString name="percent">
          -7 -3 34 176 34 103 34 176 34 hstem
          31 61 92 61 54 61 92 61 vstem
          461 565 rmoveto
          -40 hlineto
          -337 -545 rlineto
          40 hlineto
          -32 446 rmoveto
          45 23 43 23 23 23 -43 -45 -44 -23 -44 -44 callgsubr
          329 -347 rmoveto
          45 23 43 23 23 23 -43 -45 -45 -23 -43 -44 callgsubr
          endchar
        </CharString>
        <CharString name="period">
          -331 -10 124 hstem
          50 120 vstem
          50 -8 callgsubr
          endchar
        </CharString>
        <CharString name="periodcentered">
          -323 240 124 hstem
          54 120 vstem
          54 301 -53 callgsubr
          endchar
        </CharString>
        <CharString name="perthousand">
          241 0 34 176 34 100 34 176 34 hstem
          35 61 92 61 54 61 92 61 33 61 92 61 vstem
          611 122 rmoveto
          45 23 43 23 23 23 -43 -45 -45 -23 -43 -44 callgsubr
          -85 443 rmoveto
          -40 hlineto
          -337 -545 rlineto
          40 hlineto
          -32 446 rmoveto
          45 23 43 23 23 23 -43 -45 -44 -23 -44 -44 callgsubr
          329 -347 rmoveto
          45 23 43 23 23 23 -43 -45 -45 -23 -43 -44 callgsubr
          endchar
        </CharString>
        <CharString name="plus">
          -147 296 44 hstem
          180 44 vstem
          224 296 rmoveto
          141 44 -141 141 -44 -141 -141 -44 141 -141 44 hlineto
          endchar
        </CharString>
        <CharString name="plusminus">
          -135 134 44 170 44 hstem
          186 44 vstem
          65 178 rmoveto
          -44 286 44 vlineto
          -121 170 rmoveto
          121 44 -121 101 -44 -101 -121 -44 121 -101 44 hlineto
          endchar
        </CharString>
        <CharString name="q">
          -28 -192 21 161 34 392 34 hstem
          39 95 231 90 vstem
          302 17 callsubr
          601 vlineto
          -22 -37 -21 -12 -19 hvcurveto
          0 callgsubr
          -174 vlineto
          -102 callgsubr
          63 226 rmoveto
          -17 callgsubr
          endchar
        </CharString>
        <CharString name="question">
          -157 -10 124 352 -21 155 30 hstemhm
          29 60 33 120 -75 26 79 90 hintmask 00000000
          hintmask 11111010
          122 -8 callgsubr
          hintmask 11110110
          45 149 rmoveto
          -7 8 -7 5 5 8 7 7 vhcurveto
          79 169 80 116 vvcurveto
          66 -40 89 -135 -110 -48 -75 -59 -37 22 -14 20 18 15 13 21 vhcurveto
          23 -15 3 24 vvcurveto
          30 33 41 55 68 27 -36 -84 vhcurveto
          -123 -105 -44 -113 vvcurveto
          endchar
        </CharString>
        <CharString name="questiondown">
          -157 -110 30 486 124 hstemhm
          32 90 30 120 -71 26 78 60 hintmask 00000000
          hintmask 11110100
          272 55 callgsubr
          hintmask 11101100
          -45 -149 rmoveto
          7 -8 7 -5 -5 -8 -7 -7 vhcurveto
          -79 -169 -80 -116 vvcurveto
          -66 40 -89 135 110 48 75 59 37 -22 14 -20 -18 -15 -13 -21 vhcurveto
          -23 15 -3 -24 vvcurveto
          -30 -33 -41 -55 -68 -27 36 84 vhcurveto
          123 105 44 113 vvcurveto
          endchar
        </CharString>
        <CharString name="quotedbl">
          -219 408 257 hstem
          41 90 70 90 vstem
          86 408 rmoveto
          -18 callsubr
          160 hmoveto
          -18 callsubr
          endchar
        </CharString>
        <CharString name="quotedblbase">
          -138 -129 62 callgsubr
          145 46 134 46 vstem
          284 -6 rmoveto
          -100 callsubr
          -180 6 callsubr
        </CharString>
        <CharString name="quotedblleft">
          -147 455 74 108 28 hstem
          42 46 134 46 vstem
          129 542 rmoveto
          -67 callgsubr
          180 hmoveto
          -67 callgsubr
          endchar
        </CharString>
        <CharString name="quotedblright">
          -163 455 62 callgsubr
          131 46 134 2 callsubr
          180 6 callsubr
        </CharString>
        <CharString name="quoteleft">
          -327 455 74 108 28 hstem
          42 46 vstem
          129 542 rmoveto
          -67 callgsubr
          endchar
        </CharString>
        <CharString name="quoteright">
          -343 455 62 callgsubr
          131 2 callsubr
          endchar
        </CharString>
        <CharString name="quotesinglbase">
          -318 -129 62 callgsubr
          145 46 vstem
          104 -6 rmoveto
          -100 callsubr
          endchar
        </CharString>
        <CharString name="quotesingle">
          -379 408 257 hstem
          41 90 vstem
          86 408 rmoveto
          -18 callsubr
          endchar
        </CharString>
        <CharString name="r">
          -156 0 19 callgsubr
          vstem
          31 hmoveto
          216 21 hlineto
          -99 callsubr
          332 vlineto
          20 23 32 23 33 43 -8 -57 42 hhcurveto
          23 17 12 24 26 -44 29 -62 -38 -36 -22 -22 -25 hvcurveto
          44 -101 callgsubr
          -338 -59 callsubr
        </CharString>
        <CharString name="racute">
          -156 0 -25 callsubr
          65 162 hstem
          94 90 16 180 vstem
          274 677 rmoveto
          -96 callgsubr
          -349 -677 rmoveto
          216 21 hlineto
          -99 callsubr
          332 vlineto
          20 23 32 23 33 43 -8 -57 42 hhcurveto
          23 17 12 24 26 -44 29 -62 -38 -36 -22 -22 -25 hvcurveto
          44 -101 callgsubr
          -338 -59 callsubr
        </CharString>
        <CharString name="rcaron">
          -156 0 -25 callsubr
          65 162 hstemhm
          94 90 -59 238 -10 callgsubr
          219 515 -90 callgsubr
          hintmask 11101000
          -94 -677 rmoveto
          216 21 hlineto
          -99 callsubr
          332 vlineto
          20 23 32 23 33 43 -8 -57 42 hhcurveto
          23 17 12 24 26 -44 29 -62 -38 -36 -22 -22 -25 hvcurveto
          44 -101 callgsubr
          -338 -59 callsubr
        </CharString>
        <CharString name="rcommaaccent">
          -156 -248 28 108 74 38 19 callgsubr
          2 46 vstem
          145 -125 rmoveto
          -100 callsubr
          -114 125 rmoveto
          216 21 hlineto
          -99 callsubr
          332 vlineto
          20 23 32 23 33 43 -8 -57 42 hhcurveto
          23 17 12 24 26 -44 29 -62 -38 -36 -22 -22 -25 hvcurveto
          44 -101 callgsubr
          -338 -59 callsubr
        </CharString>
        <CharString name="registered">
          74 callsubr
          148 56 101 60 133 27 vstem
          -62 callgsubr
          144 -146 rmoveto
          118 20 hlineto
          -17 -12 2 5 -2 hvcurveto
          106 39 vlineto
          59 -104 rlineto
          -25 14 9 -4 48 hhcurveto
          26 20 hlineto
          -19 -12 2 6 -2 hvcurveto
          -64 114 rlineto
          41 14 22 30 38 vvcurveto
          40 callsubr
          87 256 76 callgsubr
        </CharString>
        <CharString name="reversedcommaabovecomb">
          534 62 callgsubr
          -349 46 vstem
          -262 657 6 callgsubr
        </CharString>
        <CharString name="righthalfringcomb">
          514 102 callsubr
          547 34 callsubr
        </CharString>
        <CharString name="ring">
          -323 479 43 94 43 hstem
          24 43 94 43 vstem
          67 569 -77 callgsubr
          endchar
        </CharString>
        <CharString name="ringbelowcomb">
          -190 95 callsubr
          -100 -77 callgsubr
          endchar
        </CharString>
        <CharString name="ringcomb">
          479 95 callsubr
          569 -77 callgsubr
          endchar
        </CharString>
        <CharString name="s">
          -146 -10 30 1 -21 420 30 -10 -20 hstemhm
          45 24 -18 68 183 70 -58 22 hintmask 00000000
          hintmask 10001010
          207 20 10 callgsubr
          hintmask 01001010
          20 callgsubr
          vhcurveto
          hintmask 10100110
          -58 callsubr
          hintmask 00010101
          -29 callsubr
          hintmask 10100110
          -64 callgsubr
          vhcurveto
          endchar
        </CharString>
        <CharString name="sacute">
          13 callgsubr
          64 180 -61 68 callsubr
          hintmask 0000100100000000
          257 677 rmoveto
          -96 callgsubr
          hintmask 1000010010000000
          -156 -657 -75 callsubr
        </CharString>
        <CharString name="scaron">
          13 callgsubr
          -29 238 -26 68 callsubr
          hintmask 0000100100000000
          184 515 -90 callgsubr
          hintmask 1000010010000000
          117 -657 -75 callsubr
        </CharString>
        <CharString name="scedilla">
          -145 113 callgsubr
          20 callsubr
          hstemhm
          45 24 -18 68 92 87 4 68 callsubr
          hintmask 1100010110000000
          207 20 10 callgsubr
          hintmask 1010110110000000
          20 callgsubr
          16 22 -24 -8 43 vhcurveto
          -22 -78 rlineto
          -85 callgsubr
          12 45 rlineto
          92 4 70 49 81 vvcurveto
          70 -66 48 -60 23 vhcurveto
          hintmask 1000101101000000
          64 callgsubr
          hintmask 1001001101000000
          120 -23 vlineto
          hintmask 1100101110000000
          -12 -5 -8 -7 vhcurveto
          -64 callgsubr
          vhcurveto
          endchar
        </CharString>
        <CharString name="schwa">
          -34 callsubr
        </CharString>
        <CharString name="scircumflex">
          13 callgsubr
          -28 238 -27 68 callsubr
          hintmask 0000100100000000
          235 677 rmoveto
          -50 hlineto
          -94 -162 rlineto
          26 hlineto
          93 87 93 -87 rlineto
          26 hlineto
          hintmask 1000010010000000
          -122 -495 -75 callsubr
        </CharString>
        <CharString name="scommaaccent">
          -146 -9 callgsubr
          28 20 callsubr
          hstemhm
          45 24 -18 68 102 46 35 68 callsubr
          hintmask 1100000010000000
          180 -125 rmoveto
          -100 callsubr
          hintmask 0010001001000000
          27 145 10 callgsubr
          hintmask 0001001001000000
          20 callgsubr
          vhcurveto
          hintmask 0010010101000000
          -58 callsubr
          hintmask 0000100100100000
          -29 callsubr
          hintmask 0010010101000000
          -64 callgsubr
          vhcurveto
          endchar
        </CharString>
        <CharString name="section">
          -141 -188 20 744 20 hstemhm
          40 60 -34 76 126 76 -34 60 hintmask 00000000
          hintmask 11000100
          310 458 rmoveto
          hintmask 11011000
          23 11 20 20 30 -55 68 -66 -91 -66 -54 -50 -45 31 -41 41 -40 hvcurveto
          hintmask 11101000
          -59 -20 -39 -45 -91 -106 228 -150 -62 vvcurveto
          -51 -35 -9 -38 -39 -20 47 35 18 -17 18 -19 vhcurveto
          hintmask 11011000
          -23 -11 -20 -20 -30 55 -68 66 91 66 54 50 45 -31 41 -41 40 hvcurveto
          hintmask 11010100
          59 20 39 45 91 106 -228 150 62 vvcurveto
          51 35 9 38 39 20 -47 -35 -18 17 -18 19 vhcurveto
          -66 -389 rmoveto
          hintmask 11100100
          -67 62 -77 62 75 vvcurveto
          34 27 25 39 12 vhcurveto
          67 -62 77 -62 -75 vvcurveto
          -34 -27 -25 -39 -12 vhcurveto
          endchar
        </CharString>
        <CharString name="semicolon">
          -289 -129 28 108 93 220 124 hstemhm
          71 120 -35 46 hintmask 00000000
          hintmask 00110000
          71 381 -53 callgsubr
          hintmask 11001000
          44 -387 7 callgsubr
        </CharString>
        <CharString name="seven">
          -160 11 -21 525 70 hstem
          135 72 vstem
          135 11 rmoveto
          -15 19 -6 16 15 22 6 15 vhcurveto
          172 179 358 44 vvcurveto
          -336 hlineto
          -38 -133 rlineto
          20 hlineto
          14 36 31 21 14 6 rrcurveto
          219 hlineto
          -54 -175 -331 -119 vvcurveto
          endchar
        </CharString>
        <CharString name="shortsoliduscomb">
          122 196 hstem
          -368 224 vstem
          -368 148 rmoveto
          22 -26 202 170 -22 26 rlineto
          endchar
        </CharString>
        <CharString name="shortstrokecomb">
          203 34 hstem
          -393 264 vstem
          -393 237 rmoveto
          -34 264 34 vlineto
          endchar
        </CharString>
        <CharString name="six">
          -88 -10 32 314 34 215 18 hstem
          46 90 204 90 vstem
          242 336 rmoveto
          78 20 -80 -60 -102 -39 -72 -57 -56 -52 54 148 32 2 29 4 28 hvcurveto
          14 21 30 9 49 hhcurveto
          -95 10 rmoveto
          26 133 70 81 97 25 -12 18 rcurveline
          -104 -12 -178 -131 -236 vvcurveto
          -132 66 -102 132 119 67 76 122 106 -36 76 -154 -39 -30 -10 -14 -24 vhcurveto
          endchar
        </CharString>
        <CharString name="slash">
          -93 20 28 callsubr
          endchar
        </CharString>
        <CharString name="space">
          -311 endchar
        </CharString>
        <CharString name="sterling">
          -18 -10 34 -32 80 56 34 183 44 176 30 hstemhm
          29 34 110 84 121 72 hintmask 00000000
          hintmask 01111111
          343 72 rmoveto
          -39 -30 12 16 -27 hvcurveto
          7 24 3 27 27 vvcurveto
          64 -7 42 -2 61 vhcurveto
          105 44 -106 hlineto
          134 1 24 42 38 hhcurveto
          24 44 -10 -24 hvcurveto
          76 callsubr
          -65 30 -85 -88 -50 -59 -147 -5 vhcurveto
          -68 -44 68 hlineto
          2 -83 14 -48 -62 vvcurveto
          -5 vlineto
          9 -18 -19 6 -23 hhcurveto
          -39 -45 -42 -38 hvcurveto
          hintmask 10111111
          -46 31 -46 69 40 32 22 33 22 vhcurveto
          hintmask 01111111
          -28 32 39 -25 53 hhcurveto
          118 39 115 11 8 -5 4 -5 hvcurveto
          -11 -12 -58 -128 hhcurveto
          -173 24 rmoveto
          hintmask 10111111
          -49 -6 -16 -23 -23 hhcurveto
          -35 -27 23 34 26 25 21 25 20 18 -13 -19 19 hvcurveto
          endchar
        </CharString>
        <CharString name="t">
          -218 -10 118 callgsubr
          145 -20 hstemhm
          84 67 callgsubr
          hintmask 11101100
          180 585 rmoveto
          -6 callsubr
          hintmask 11110100
          -71 callgsubr
          hintmask 11101100
          -86 hlineto
          endchar
        </CharString>
        <CharString name="tbar">
          -214 -10 38 223 34 125 30 125 20 hstemhm
          17 264 -194 67 callgsubr
          hintmask 11110011
          183 585 rmoveto
          -43 hlineto
          hintmask 11111001
          -95 -66 -50 -57 vhcurveto
          -30 vlineto
          hintmask 11110101
          70 -125 hlineto
          hintmask 11111001
          -70 -34 hlineto
          hintmask 11110101
          70 -151 hlineto
          -56 22 -54 92 68 38 32 60 14 vhcurveto
          -5 callgsubr
          -44 -10 -31 -22 -21 hhcurveto
          -42 -10 26 38 hvcurveto
          159 vlineto
          hintmask 11111001
          98 34 hlineto
          hintmask 11110101
          -98 125 86 30 hlineto
          hintmask 11110011
          -86 hlineto
          endchar
        </CharString>
        <CharString name="tcaron">
          -218 -10 118 callgsubr
          60 28 37 20 51 74 hstemhm
          84 96 -43 43 114 24 -6 46 -59 callgsubr
          hintmask 0010100010000000
          271 623 rmoveto
          -100 callsubr
          hintmask 1101001100000000
          -91 -38 rmoveto
          -6 callsubr
          hintmask 1101010100000000
          -71 callgsubr
          hintmask 1101001100000000
          -86 hlineto
          endchar
        </CharString>
        <CharString name="tcommaaccent">
          -218 113 callgsubr
          46 callsubr
          85 96 -43 43 21 87 6 24 hintmask 00000000
          hintmask 11110111
          181 585 rmoveto
          -6 callsubr
          hintmask 11111011
          70 -310 hlineto
          -48 16 -47 62 -12 vhcurveto
          -23 -79 rlineto
          -85 callgsubr
          12 45 67 1 37 32 14 59 rlinecurve
          -5 callgsubr
          -44 -10 -31 -22 -21 hhcurveto
          -42 -10 26 38 hvcurveto
          318 86 30 vlineto
          hintmask 11110111
          -86 hlineto
          endchar
        </CharString>
        <CharString name="theta">
          -14 -10 30 284 34 261 31 hstem
          48 96 245 96 vstem
          271 -10 rmoveto
          165 49 148 168 182 -59 142 -162 -166 -50 -154 -158 -186 70 -142 153 hvcurveto
          118 314 rmoveto
          -21 vlineto
          -161 -32 -102 -73 -81 -54 74 210 -5 vhcurveto
          244 34 rmoveto
          -244 hlineto
          166 30 95 73 92 42 -73 -188 7 vhcurveto
          endchar
        </CharString>
        <CharString name="thorn">
          -32 -192 21 159 29 399 34 114 23 43 -20 hstem
          68 90 227 95 vstem
          5 17 callsubr
          139 vlineto
          198 124 84 195 87 -58 96 -126 -65 -44 -29 -31 -29 hvcurveto
          240 -101 callgsubr
          -710 vlineto
          -102 callgsubr
          153 525 rmoveto
          30 24 41 32 63 hhcurveto
          58 41 -68 -106 -169 -102 -54 -125 -2 hvcurveto
          endchar
        </CharString>
        <CharString name="three">
          -77 -10 30 271 20 224 60 hstemhm
          314 86 -56 83 hintmask 00000000
          hintmask 11101000
          197 291 rmoveto
          20 6 5 23 hhcurveto
          75 23 -101 -43 -56 -19 -76 -110 hvcurveto
          -130 22 106 -38 hhcurveto
          -28 -8 -14 -40 -18 72 -64 116 170 36 86 96 66 -58 77 -66 16 hvcurveto
          hintmask 11110000
          50 29 47 45 54 vvcurveto
          87 -50 49 -132 -115 -43 -105 -23 -7 4 -3 4 vhcurveto
          15 3 78 121 hhcurveto
          69 38 -36 -53 -81 -76 -38 -53 -16 hvcurveto
          -5 -2 -2 -2 -3 vvcurveto
          -6 10 -7 9 vhcurveto
          endchar
        </CharString>
        <CharString name="threequarters">
          136 0 23 82 29 142 30 154 22 128 50 hstemhm
          218 67 -47 65 229 70 hintmask 00000000
          150 28 callsubr
          hintmask 11000001
          63 -237 -58 callgsubr
          hintmask 00111010
          -388 176 -31 callsubr
          hintmask 00111100
          -40 callsubr
        </CharString>
        <CharString name="tilde">
          -130 500 101 callgsubr
          60 74 callgsubr
          vstem
          284 7 callsubr
        </CharString>
        <CharString name="tildebelowcomb">
          -180 109 callgsubr
          -179 -180 11 callsubr
        </CharString>
        <CharString name="tildecomb">
          500 109 callgsubr
          -179 7 callsubr
        </CharString>
        <CharString name="tildeoverlaycomb">
          155 63 6 63 hstem
          -471 26 377 26 vstem
          -145 155 3 callsubr
        </CharString>
        <CharString name="trademark">
          208 282 17 231 55 -24 24 -17 17 hstemhm
          54 17 87 53 87 17 43 24 231 53 -59 callgsubr
          hintmask 1001111110000000
          326 282 rmoveto
          88 17 hlineto
          -19 -10 3 5 -3 hvcurveto
          214 vlineto
          111 -239 rlineto
          12 hlineto
          108 236 rlineto
          -211 vlineto
          -4 -2 -9 -4 -22 hhcurveto
          -17 118 17 vlineto
          -19 -10 3 5 -3 hvcurveto
          253 vlineto
          4 2 8 4 22 hhcurveto
          17 -81 vlineto
          -105 -231 -106 231 rlineto
          -80 -17 hlineto
          19 10 -3 -5 3 hvcurveto
          -253 vlineto
          -4 -2 -8 -4 -22 hhcurveto
          hintmask 1100111110000000
          -272 286 rmoveto
          -55 17 vlineto
          hintmask 1010111110000000
          19 3 9 5 3 vhcurveto
          79 -254 hlineto
          -4 -2 -8 -4 -22 hhcurveto
          -17 117 17 vlineto
          -19 -10 3 5 -3 hvcurveto
          254 79 vlineto
          hintmask 1100111110000000
          4 -2 4 -7 -22 vvcurveto
          17 55 hlineto
          endchar
        </CharString>
        <CharString name="turnedcommaabovecomb">
          501 74 108 28 hstem
          -346 46 vstem
          -259 588 rmoveto
          -67 callgsubr
          endchar
        </CharString>
        <CharString name="two">
          -77 0 70 465 60 hstem
          314 98 vstem
          29 hmoveto
          372 hlineto
          38 133 rlineto
          -20 hlineto
          -14 -36 -31 -21 -14 -6 rrcurveto
          -211 hlineto
          31 263 207 119 vvcurveto
          87 -54 81 -132 -141 -46 -123 -23 -7 4 -3 4 vhcurveto
          15 7 96 146 hhcurveto
          69 30 -68 -53 hvcurveto
          -172 -285 -198 -44 vvcurveto
          endchar
        </CharString>
        <CharString name="u">
          -47 callgsubr
          hstem
          80 90 205 90 vstem
          465 61 rmoveto
          379 -105 callgsubr
          -46 -93 callsubr
          endchar
        </CharString>
        <CharString name="uacute">
          -28 callsubr
          48 callgsubr
          88 180 -63 90 -10 callgsubr
          332 677 rmoveto
          -96 callgsubr
          hintmask 11101010
          27 -616 rmoveto
          379 -105 callgsubr
          -46 -93 callsubr
          endchar
        </CharString>
        <CharString name="ubar">
          1 -10 34 9 23 173 34 156 21 hstem
          81 90 205 90 vstem
          376 229 rmoveto
          -161 vlineto
          -21 -24 -37 -23 -13 callgsubr
          46 55 hvcurveto
          104 vlineto
          295 -168 rmoveto
          168 62 34 -62 177 -86 callgsubr
          -136 -205 177 -86 callgsubr
          -136 -61 -34 61 -97 vlineto
          -96 50 -46 126 52 40 23 23 27 vhcurveto
          -46 -93 callsubr
          endchar
        </CharString>
        <CharString name="ubreve">
          -47 callgsubr
          85 72 hstemhm
          80 90 -25 57 callgsubr
          -22 90 hintmask 00000000
          hintmask 00010110
          271 525 -92 callgsubr
          hintmask 11101001
          194 -464 rmoveto
          379 -105 callgsubr
          -46 -93 callsubr
          endchar
        </CharString>
        <CharString name="ucircumflex">
          -28 callsubr
          48 callgsubr
          -18 238 -15 90 -10 callgsubr
          296 677 rmoveto
          -50 hlineto
          -94 -162 rlineto
          26 hlineto
          93 87 93 -87 rlineto
          26 hlineto
          hintmask 11101010
          75 -454 rmoveto
          379 -105 callgsubr
          -46 -93 callsubr
          endchar
        </CharString>
        <CharString name="udieresis">
          -28 callsubr
          98 hstemhm
          80 90 -40 98 86 98 -37 90 hintmask 00000000
          hintmask 00010110
          314 564 -106 callsubr
          hintmask 11101001
          335 -503 rmoveto
          379 -105 callgsubr
          -46 -93 callsubr
          endchar
        </CharString>
        <CharString name="udotbelow">
          -1 -153 102 41 -14 callgsubr
          hstem
          80 90 54 102 49 90 vstem
          224 -97 callgsubr
          241 163 rmoveto
          379 -105 callgsubr
          -46 -93 callsubr
          endchar
        </CharString>
        <CharString name="ugrave">
          -28 callsubr
          48 callgsubr
          -53 180 78 90 -10 callgsubr
          223 677 rmoveto
          -106 hlineto
          154 -162 rlineto
          26 hlineto
          hintmask 11101010
          168 -454 rmoveto
          379 -105 callgsubr
          -46 -93 callsubr
          endchar
        </CharString>
        <CharString name="uhorn">
          8 callsubr
          hstemhm
          80 90 205 90 92 48 hintmask 00000000
          hintmask 11110111
          465 61 -61 callgsubr
          hintmask 11101111
          106 -105 callgsubr
          -46 -93 callsubr
          endchar
        </CharString>
        <CharString name="uhungarumlaut">
          -28 callsubr
          48 callgsubr
          2 84 callgsubr
          -137 90 hintmask 00000000
          hintmask 00010010
          406 677 rmoveto
          -96 callgsubr
          hintmask 00010100
          -266 hmoveto
          -96 callgsubr
          hintmask 11101001
          113 -616 rmoveto
          379 -105 callgsubr
          -46 -93 callsubr
          endchar
        </CharString>
        <CharString name="umacron">
          -47 callgsubr
          89 44 hstemhm
          80 90 -37 264 -22 90 -10 callgsubr
          133 68 callgsubr
          hintmask 11101010
          68 -512 rmoveto
          379 -105 callgsubr
          -46 -93 callsubr
          endchar
        </CharString>
        <CharString name="underscore">
          -103 -94 44 hstem
          42 -50 52 callsubr
          endchar
        </CharString>
        <CharString name="uni00A0">
          -311 endchar
        </CharString>
        <CharString name="uni00AD">
          50 callsubr
        </CharString>
        <CharString name="uni00B2">
          -191 280 108 callsubr
          336 -55 callsubr
          endchar
        </CharString>
        <CharString name="uni00B3">
          -197 276 57 callsubr
          460 -31 callsubr
          hintmask 11110000
          -40 callsubr
        </CharString>
        <CharString name="uni00B5">
          29 -10 34 416 -20 hstemhm
          77 42 -42 90 211 90 70 18 hintmask 00000000
          hintmask 11011100
          468 440 rmoveto
          -90 -329 hlineto
          -15 vlineto
          -32 -25 -42 -40 79 callsubr
          -90 vlineto
          hintmask 11101100
          -574 vlineto
          -52 36 -14 22 24 26 14 31 vhcurveto
          58 -66 -22 86 vvcurveto
          57 vlineto
          -23 28 42 -11 56 hhcurveto
          65 46 38 33 27 hvcurveto
          -55 12 33 -16 36 hhcurveto
          69 23 18 37 hvcurveto
          -18 hlineto
          -14 -17 -11 -17 -17 -19 17 46 vhcurveto
          endchar
        </CharString>
        <CharString name="uni00B9">
          -309 280 23 hstem
          88 71 vstem
          40 508 -56 callsubr
        </CharString>
        <CharString name="uni0180">
          -13 -10 34 396 34 39 34 37 23 23 20 hstemhm
          -7 264 -189 90 246 95 hintmask 00000000
          hintmask 11111011
          158 373 rmoveto
          21 19 37 26 71 hhcurveto
          70 49 -80 -118 -132 -69 -66 -68 -58 -34 20 15 -17 hvcurveto
          -90 500 rmoveto
          -32 vlineto
          hintmask 11111101
          -75 -34 hlineto
          hintmask 11111011
          75 -503 hlineto
          26 47 29 9 13 hvcurveto
          -17 21 38 -21 60 hhcurveto
          130 96 78 154 182 -126 50 -78 -70 -42 -23 -24 -25 hvcurveto
          86 vlineto
          hintmask 11111101
          99 34 hlineto
          hintmask 11111011
          -99 103 hlineto
          -45 -69 -43 -39 hhcurveto
          -23 vlineto
          15 23 -3 -2 25 hvcurveto
          endchar
        </CharString>
        <CharString name="uni0181">
          123 0 21 -21 34 256 29 232 34 hstemhm
          14 84 123 92 181 100 -56 100 hintmask 00000000
          hintmask 10111101
          158 hmoveto
          hintmask 01111101
          -3 callsubr
          hintmask 10111110
          9 callsubr
          -121 -11 callgsubr
          155 530 rmoveto
          -3 callgsubr
          -29 vmoveto
          73 hlineto
          hintmask 01111101
          2 callgsubr
          endchar
        </CharString>
        <CharString name="uni0187">
          126 -10 34 441 -21 117 34 hstem
          44 104 333 22 vstem
          449 546 rmoveto
          29 -33 -46 20 -54 hhcurveto
          -157 -115 -117 -194 -152 102 -142 186 123 58 70 60 25 hvcurveto
          -28 callgsubr
          55 103 114 86 68 -51 -66 10 hvcurveto
          22 hlineto
          76 22 45 24 20 4 -10 -20 10 vhcurveto
          -27 14 12 -17 20 hhcurveto
          22 20 18 18 46 -76 22 -56 -39 -29 -16 -33 -22 hvcurveto
          endchar
        </CharString>
        <CharString name="uni0188">
          52 -10 38 392 30 hstem
          39 95 261 32 vstem
          395 300 rmoveto
          32 hlineto
          76 23 44 24 20 4 -10 -20 10 vhcurveto
          -27 14 12 -17 20 hhcurveto
          22 20 18 18 46 -76 22 -56 -33 -30 -17 -26 -23 hvcurveto
          26 -28 -39 17 -49 hhcurveto
          -138 -85 18 callsubr
          -19 callsubr
          hvcurveto
          -39 callsubr
          66 57 -54 -66 hvcurveto
          endchar
        </CharString>
        <CharString name="uni0189">
          63 0 21 -21 34 241 34 247 29 -21 21 hstemhm
          108 92 270 100 hintmask 00000000
          hintmask 01110110
          200 275 rmoveto
          102 34 -102 247 -34 callgsubr
          hintmask 10100110
          -155 -34 rmoveto
          hintmask 01110110
          -52 callsubr
          hintmask 10101110
          11 callgsubr
          -235 -70 -34 70 -234 -59 callsubr
        </CharString>
        <CharString name="uni018A">
          176 -1 21 -21 34 518 34 hstemhm
          14 84 123 92 270 100 hintmask 00000000
          hintmask 10111100
          158 -1 rmoveto
          hintmask 01111100
          242 hlineto
          167 116 120 174 172 -116 120 -179 hvcurveto
          -167 -69 callsubr
          -511 vlineto
          hintmask 10111100
          -102 callgsubr
          155 531 rmoveto
          75 hlineto
          92 103 -72 -187 hvcurveto
          hintmask 01111100
          -189 -103 -70 -80 vhcurveto
          -87 hlineto
          endchar
        </CharString>
        <CharString name="uni0191">
          -90 -156 30 413 38 callsubr
          -21 21 hstemhm
          96 92 160 21 46 21 hintmask 00000000
          hintmask 11011110
          436 488 rmoveto
          97 -403 -21 vlineto
          -104 callgsubr
          -558 vlineto
          -76 -18 -61 callsubr
          287 140 vlineto
          -87 callgsubr
          160 -21 hlineto
          -42 -6 -15 -14 -6 vhcurveto
          -140 hlineto
          hintmask 11101110
          230 207 vlineto
          14 -6 6 -15 -42 vvcurveto
          endchar
        </CharString>
        <CharString name="uni0193">
          133 -10 34 244 21 176 -21 117 34 hstemhm
          44 104 302 92 -61 22 hintmask 00000000
          hintmask 11111100
          316 595 rmoveto
          -157 -115 -117 -194 -152 112 -142 186 120 63 59 31 17 hvcurveto
          168 -103 callsubr
          -205 vlineto
          -11 -29 -37 -8 -40 hhcurveto
          -86 -110 68 194 152 55 123 114 hvcurveto
          hintmask 11111010
          86 68 -51 -66 10 hvcurveto
          22 hlineto
          76 22 45 24 20 4 -10 -20 10 vhcurveto
          -27 14 12 -17 20 hhcurveto
          22 20 18 18 46 -76 22 -56 -39 -29 -16 -33 -22 hvcurveto
          29 -33 -46 20 -54 hhcurveto
          endchar
        </CharString>
        <CharString name="uni0194">
          -28 -10 47 527 21 hstem
          173 41 51 92 vstem
          201 585 rmoveto
          -212 -21 hlineto
          42 15 -8 -13 7 hvcurveto
          116 -215 9 -16 23 -43 22 -47 rlinecurve
          -26 -45 -24 -49 -38 vvcurveto
          -67 33 -33 56 57 38 45 53 59 -31 78 -26 54 vhcurveto
          171 265 rlineto
          13 8 13 7 42 hhcurveto
          21 -153 -21 vlineto
          31 16 -3 -7 9 hvcurveto
          -154 -241 -135 242 rlineto
          6 9 16 3 28 hhcurveto
          40 -381 rmoveto
          14 -34 10 -33 -23 vvcurveto
          -18 -9 -38 -17 -18 -7 34 36 19 12 28 15 29 vhcurveto
          endchar
        </CharString>
        <CharString name="uni0198">
          144 0 21 530 34 -21 21 hstemhm
          14 84 123 90 hintmask 00000000
          hintmask 10111000
          158 hmoveto
          216 21 hlineto
          -99 callsubr
          503 vlineto
          14 6 15 6 42 hhcurveto
          21 vlineto
          hintmask 11011000
          -153 -11 callgsubr
          349 43 callsubr
          -37 -16 6 10 -10 hvcurveto
          -235 305 201 199 rlineto
          hintmask 10111000
          9 8 12 14 42 hhcurveto
          21 -157 -21 vlineto
          26 15 -2 -5 10 hvcurveto
          -245 -243 228 -290 rlineto
          -2 -9 -12 -1 -16 hhcurveto
          endchar
        </CharString>
        <CharString name="uni0199">
          -50 62 callsubr
          160 30 hstem
          84 90 vstem
          21 hmoveto
          216 21 hlineto
          -99 callsubr
          447 vlineto
          76 20 36 24 20 4 -10 -20 10 vhcurveto
          -27 14 12 -17 20 hhcurveto
          22 20 18 18 46 -76 22 -56 22 callsubr
          hvcurveto
          80 callgsubr
          289 43 callsubr
          -38 -15 5 14 -10 hvcurveto
          -172 239 142 127 rlineto
          7 8 15 -39 callgsubr
        </CharString>
        <CharString name="uni019D">
          77 -200 84 137 -21 564 21 hstem
          96 34 368 34 vstem
          595 585 rmoveto
          -160 -21 hlineto
          -104 callgsubr
          -368 vlineto
          -331 409 rlineto
          -134 -21 hlineto
          -104 callgsubr
          -537 vlineto
          -67 -9 -36 -10 -9 vhcurveto
          -7 -7 -12 -4 -12 hhcurveto
          -12 -11 4 11 -6 hvcurveto
          14 -8 -12 5 -13 hhcurveto
          -29 -18 -21 -26 -49 51 -22 37 22 33 11 22 15 hvcurveto
          22 34 13 18 115 vvcurveto
          497 vlineto
          393 -497 rlineto
          9 544 hlineto
          14 6 15 6 42 hhcurveto
          endchar
        </CharString>
        <CharString name="uni01A4">
          103 0 21 245 34 251 34 hstem
          14 84 123 92 223 100 vstem
          158 hmoveto
          51 callsubr
          83 vlineto
          167 73 72 95 67 -73 85 -179 hvcurveto
          -163 hlineto
          -121 -19 -12 -23 -34 hvcurveto
          -22 -15 -11 -33 -22 vvcurveto
          -37 22 -51 49 26 21 18 29 13 -5 12 -14 8 vhcurveto
          -11 6 -4 11 12 vvcurveto
          12 4 12 7 7 vhcurveto
          11 10 29 8 73 hhcurveto
          -510 vlineto
          -102 callgsubr
          117 callgsubr
          -57 -62 -93 -36 -39 -104 hvcurveto
          -83 hlineto
          endchar
        </CharString>
        <CharString name="uni01A5">
          -30 -192 21 161 34 392 34 140 30 hstem
          68 90 229 95 vstem
          5 4 callsubr
          61 vlineto
          76 20 36 24 20 4 -10 -20 10 vhcurveto
          -27 14 12 -17 20 hhcurveto
          22 20 18 18 46 -76 22 -56 22 callsubr
          hvcurveto
          -615 vlineto
          -102 callgsubr
          153 555 rmoveto
          41 callgsubr
        </CharString>
        <CharString name="uni01A9">
          -81 0 58 497 30 hstem
          383 21 17 21 vstem
          404 492 rmoveto
          93 -382 vlineto
          213 -282 -233 -303 rlineto
          404 hlineto
          36 122 rlineto
          -21 hlineto
          -12 -42 -30 -16 -14 -6 rrcurveto
          -252 hlineto
          211 276 -166 221 rlineto
          205 hlineto
          14 -6 6 -15 -42 vvcurveto
          endchar
        </CharString>
</ttFont>
